<?xml version="1.0" standalone="no"?>
<!DOCTYPE svg PUBLIC "-//W3C//DTD SVG 20010904//EN"
 "http://www.w3.org/TR/2001/REC-SVG-20010904/DTD/svg10.dtd">
<svg version="1.0" xmlns="http://www.w3.org/2000/svg"
 width="1024.000000pt" height="1165.000000pt" viewBox="0 0 1024.000000 1165.000000"
 preserveAspectRatio="xMidYMid meet">
<metadata>
Created by potrace 1.16, written by Peter Selinger 2001-2019
</metadata>
<g transform="translate(0.000000,1165.000000) scale(0.100000,-0.100000)"
fill="#000000" stroke="none">
<path d="M5460 11231 c-61 -5 -116 -16 -154 -31 -55 -21 -60 -21 -71 -6 -7 9
-19 14 -28 10 -8 -3 -39 2 -68 10 -69 21 -239 21 -355 0 -49 -8 -104 -13 -122
-10 -18 3 -30 1 -27 -4 8 -13 -22 -20 -56 -13 -24 4 -34 2 -41 -10 -5 -10 -20
-17 -33 -17 -13 0 -27 -4 -30 -10 -3 -5 -19 -10 -36 -10 -16 0 -29 -4 -29 -10
0 -5 -16 -10 -35 -10 -25 0 -35 -4 -35 -16 0 -12 -6 -15 -25 -10 -17 4 -25 2
-25 -7 0 -8 -22 -19 -51 -27 -28 -8 -53 -20 -56 -27 -3 -7 -11 -13 -19 -13 -8
0 -22 -4 -32 -9 -9 -5 -42 -21 -72 -36 -30 -14 -62 -30 -70 -35 -8 -5 -30 -15
-47 -22 -18 -7 -33 -16 -33 -20 0 -5 -9 -8 -19 -8 -10 0 -21 -7 -25 -15 -3 -8
-11 -15 -18 -15 -7 0 -24 -9 -38 -20 -14 -11 -32 -20 -40 -20 -8 0 -24 -11
-34 -25 -10 -14 -24 -25 -31 -25 -6 0 -30 -16 -52 -35 -23 -19 -44 -35 -47
-35 -6 0 -36 -23 -61 -47 -8 -7 -18 -13 -24 -13 -6 0 -11 -4 -11 -10 0 -5 -4
-10 -9 -10 -11 0 -251 -240 -251 -252 0 -4 -6 -8 -13 -8 -13 0 -41 -28 -45
-45 -1 -5 -25 -38 -52 -72 -28 -34 -50 -67 -50 -72 0 -5 -4 -11 -8 -13 -10 -4
-92 -112 -92 -122 0 -4 -9 -16 -20 -28 -11 -12 -20 -30 -20 -40 0 -10 -4 -18
-10 -18 -5 0 -17 -17 -27 -37 -9 -21 -20 -40 -23 -43 -3 -3 -12 -21 -20 -40
-7 -19 -20 -41 -28 -47 -9 -7 -12 -13 -8 -13 4 0 1 -12 -7 -27 -8 -16 -25 -50
-38 -78 -12 -27 -26 -57 -31 -65 -12 -22 -15 -30 -29 -82 -7 -27 -17 -48 -21
-48 -4 0 -8 -16 -8 -35 0 -25 -4 -35 -16 -35 -12 0 -14 -7 -9 -28 4 -20 1 -33
-10 -42 -8 -7 -15 -19 -15 -26 0 -8 -7 -14 -15 -14 -11 0 -12 -5 -6 -23 10
-26 -1 -53 -17 -43 -7 4 -9 -5 -5 -29 4 -26 2 -36 -11 -41 -9 -3 -16 -17 -16
-30 0 -13 -4 -33 -9 -46 -5 -13 -14 -43 -21 -68 -24 -87 -33 -115 -47 -147 -7
-17 -13 -40 -13 -51 0 -12 -5 -24 -10 -27 -6 -3 -10 -19 -10 -35 0 -16 -5 -32
-10 -35 -6 -3 -10 -24 -10 -46 0 -21 -4 -39 -10 -39 -5 0 -10 -15 -10 -34 0
-18 -7 -39 -15 -46 -8 -7 -15 -28 -15 -46 0 -24 -5 -34 -16 -34 -13 0 -15 -7
-9 -40 5 -32 3 -41 -9 -46 -12 -4 -16 -17 -14 -41 1 -19 -3 -38 -10 -42 -7 -4
-11 -26 -10 -50 1 -26 -4 -46 -12 -51 -8 -5 -14 -27 -14 -52 -1 -23 -5 -42
-11 -41 -6 1 -10 -22 -11 -50 0 -46 -6 -92 -34 -272 -14 -89 -60 -197 -102
-236 -15 -14 -28 -31 -28 -37 0 -7 -4 -12 -8 -12 -5 0 -15 -12 -23 -27 -26
-53 -91 -145 -128 -182 -20 -20 -48 -52 -63 -71 -36 -48 -108 -121 -165 -167
-26 -21 -63 -53 -82 -70 -20 -18 -41 -33 -47 -33 -7 0 -14 -7 -18 -15 -3 -8
-10 -15 -16 -15 -6 0 -20 -9 -32 -20 -12 -11 -30 -20 -40 -20 -10 0 -18 -4
-18 -8 0 -5 -12 -15 -27 -22 -16 -8 -35 -20 -43 -26 -28 -23 -160 -85 -169
-80 -5 3 -12 -1 -15 -10 -4 -10 -13 -13 -25 -9 -12 4 -21 0 -25 -11 -4 -11
-15 -15 -36 -12 -17 3 -28 0 -27 -6 1 -6 -11 -13 -28 -14 -16 -2 -34 -10 -38
-18 -6 -11 -17 -13 -38 -9 -22 5 -29 3 -29 -8 0 -11 -12 -15 -46 -14 -25 0
-49 -5 -52 -10 -4 -6 -16 -12 -27 -14 -40 -8 -21 -31 27 -33 26 -1 46 3 45 8
-3 14 53 24 80 15 17 -6 21 -5 17 6 -5 13 32 32 43 21 3 -3 12 2 20 10 11 10
25 13 45 9 20 -5 28 -3 26 6 -2 7 6 15 17 17 11 2 27 9 35 16 8 7 29 18 45 25
17 7 38 17 47 22 10 5 25 9 33 9 8 0 15 5 15 10 0 6 6 10 13 10 15 0 170 90
200 117 12 10 34 25 49 32 15 8 45 30 68 51 54 49 93 80 100 80 4 0 46 46 96
101 49 56 97 109 107 118 11 9 57 71 104 139 84 121 112 148 98 95 -12 -49
-58 -133 -73 -133 -10 0 -13 -7 -9 -21 3 -12 0 -22 -9 -26 -8 -3 -14 -13 -14
-23 0 -10 -7 -20 -15 -24 -8 -3 -12 -12 -9 -21 4 -8 -1 -17 -10 -21 -9 -3 -16
-13 -16 -22 0 -8 -12 -36 -27 -61 -36 -60 -67 -118 -88 -161 -9 -19 -21 -43
-26 -52 -5 -10 -9 -24 -9 -32 0 -8 -7 -16 -15 -20 -8 -3 -15 -12 -15 -21 0 -8
-4 -15 -10 -15 -5 0 -10 -7 -10 -15 0 -8 -4 -23 -9 -33 -5 -9 -12 -25 -15 -35
-3 -11 -11 -15 -17 -11 -9 5 -10 -1 -5 -20 4 -18 2 -28 -8 -32 -7 -3 -12 -13
-9 -23 2 -9 -3 -23 -11 -30 -9 -8 -16 -24 -16 -37 0 -14 -4 -32 -9 -42 -5 -9
-15 -37 -21 -62 -7 -25 -19 -64 -28 -87 -8 -23 -12 -54 -9 -69 2 -15 -1 -41
-8 -58 -11 -26 -11 -44 -1 -98 11 -56 20 -76 60 -122 27 -32 56 -56 67 -56 10
0 19 -4 19 -8 0 -5 16 -14 35 -22 26 -10 35 -20 35 -37 0 -14 -6 -23 -16 -23
-11 0 -14 -6 -9 -20 4 -14 1 -22 -10 -26 -9 -4 -14 -13 -11 -21 7 -17 -12 -56
-23 -48 -5 2 -6 -15 -3 -40 3 -35 1 -46 -11 -51 -13 -4 -15 -16 -10 -53 4 -37
1 -51 -12 -64 -13 -13 -15 -27 -11 -52 7 -36 -8 -80 -24 -70 -5 3 -5 -9 1 -27
6 -24 5 -38 -7 -55 -17 -27 -81 -92 -137 -140 -20 -17 -37 -36 -37 -42 0 -6
-4 -11 -10 -11 -5 0 -10 -7 -10 -15 0 -8 -4 -15 -8 -15 -5 0 -17 -18 -27 -40
-10 -22 -24 -40 -31 -40 -13 0 -15 -29 -11 -150 1 -25 2 -80 1 -122 0 -61 3
-78 14 -78 10 0 13 -10 10 -40 -2 -26 1 -40 8 -40 14 0 26 -43 18 -64 -3 -8 1
-22 9 -31 8 -8 13 -24 10 -35 -4 -14 0 -20 11 -20 11 0 16 -9 16 -29 0 -16 6
-31 15 -35 8 -3 12 -11 9 -19 -3 -8 6 -36 20 -62 15 -26 26 -54 26 -61 0 -8 5
-14 10 -14 6 0 10 -8 10 -19 0 -10 7 -24 15 -31 8 -7 15 -17 15 -22 0 -6 9
-23 21 -39 13 -18 19 -40 17 -54 -3 -15 -1 -22 7 -19 6 3 17 -6 23 -18 7 -13
21 -38 32 -57 10 -19 16 -39 12 -45 -3 -6 -5 -23 -3 -39 2 -18 -3 -29 -14 -33
-12 -5 -15 -14 -10 -31 7 -30 -2 -63 -18 -63 -8 0 -12 -18 -12 -52 0 -30 -4
-52 -10 -51 -6 1 -10 -24 -11 -55 -1 -68 -17 -166 -32 -204 -6 -15 -9 -34 -6
-42 3 -8 0 -25 -7 -38 -13 -23 -22 -93 -39 -283 -4 -55 -12 -123 -17 -152 -5
-28 -8 -103 -6 -166 3 -96 1 -116 -12 -120 -9 -4 -15 -19 -15 -36 0 -17 -6
-31 -15 -35 -11 -4 -14 -13 -9 -31 5 -19 2 -25 -10 -25 -11 0 -16 -9 -16 -30
0 -16 -5 -30 -11 -30 -7 0 -9 -9 -5 -24 4 -15 0 -28 -9 -36 -8 -7 -15 -23 -15
-37 0 -13 -7 -26 -15 -29 -10 -4 -14 -17 -12 -38 1 -17 -2 -30 -8 -29 -5 1
-11 -13 -11 -30 -1 -18 -10 -59 -20 -92 -23 -77 -23 -199 0 -290 9 -38 20 -88
23 -110 3 -22 10 -45 14 -51 5 -6 6 -32 3 -58 -6 -40 -4 -46 11 -46 16 0 17
-7 12 -70 -4 -50 -3 -69 6 -67 17 3 30 -166 20 -276 -6 -64 -12 -91 -21 -89
-9 1 -12 -33 -12 -138 0 -114 3 -140 14 -140 15 0 32 -72 22 -89 -3 -5 0 -11
6 -13 9 -3 13 -27 13 -71 0 -45 4 -68 13 -72 8 -3 10 -13 6 -30 -4 -16 0 -34
10 -50 9 -13 16 -37 16 -54 0 -16 6 -31 15 -35 8 -3 15 -18 15 -33 1 -15 11
-41 25 -57 l23 -29 164 6 c129 5 170 3 191 -8 20 -10 77 -13 237 -13 126 0
215 -4 223 -10 8 -6 278 -10 768 -10 416 0 766 -3 778 -7 11 -3 18 -11 15 -17
-5 -7 17 -9 67 -5 41 4 418 6 839 6 421 0 1037 1 1370 2 643 3 634 3 809 -7
75 -4 111 -2 107 4 -3 6 8 14 26 18 18 4 441 7 940 7 871 0 908 1 913 19 4 10
-10 51 -34 99 -23 45 -41 88 -41 95 0 8 -4 14 -8 14 -4 0 -14 17 -21 38 -15
46 -38 104 -62 159 -11 24 -19 49 -19 56 0 7 -7 22 -15 33 -8 10 -15 27 -15
37 0 9 -5 17 -11 17 -7 0 -9 10 -7 25 3 14 1 23 -6 22 -6 -1 -11 7 -12 18 0
11 -11 32 -23 46 -24 26 -57 77 -88 136 -9 18 -20 33 -25 33 -4 0 -8 4 -8 10
0 9 -67 120 -79 130 -3 3 -12 17 -20 33 -8 15 -18 27 -23 27 -4 0 -14 15 -22
32 -7 18 -23 43 -35 55 -11 12 -21 26 -21 31 0 5 -10 20 -23 33 -13 13 -46 56
-73 94 -27 39 -59 81 -72 95 -12 14 -28 37 -35 52 -6 16 -16 28 -21 28 -4 0
-6 7 -2 15 3 8 0 15 -7 15 -7 0 -32 30 -57 67 -25 36 -73 104 -108 151 -34 46
-60 88 -56 93 3 5 -2 9 -10 9 -9 0 -16 6 -16 14 0 8 -4 16 -8 18 -5 2 -26 28
-48 58 -21 30 -42 60 -47 65 -35 43 -128 175 -138 195 -6 14 -15 33 -20 42 -5
10 -9 29 -9 42 0 13 -6 26 -14 29 -9 4 -12 15 -8 33 3 19 0 29 -13 36 -13 8
-15 18 -11 43 5 24 3 34 -9 39 -9 3 -15 18 -15 39 0 19 -7 40 -15 47 -9 7 -12
22 -9 39 4 18 0 32 -10 40 -9 8 -16 26 -16 42 0 15 -4 31 -10 34 -5 3 -10 23
-10 43 0 20 -7 45 -15 55 -7 11 -11 25 -8 33 5 13 -18 88 -38 126 -5 10 -9 27
-9 38 0 12 -7 34 -15 50 -8 16 -14 33 -13 37 1 4 -9 29 -21 55 -13 27 -21 55
-17 63 3 9 0 15 -10 15 -11 0 -15 6 -11 19 3 13 -1 21 -14 24 -11 3 -19 13
-19 24 0 22 -95 123 -115 123 -32 0 -12 28 56 80 82 62 209 197 224 237 6 16
18 42 28 60 9 18 17 41 17 51 0 11 7 25 15 32 9 8 13 21 9 32 -3 12 1 27 11
38 12 13 16 29 12 47 -6 31 9 139 23 164 5 11 3 27 -6 45 -10 19 -14 53 -13
102 1 41 -2 77 -8 80 -18 12 -23 69 -8 82 8 7 15 19 15 26 0 8 5 14 10 14 6 0
10 17 10 38 0 21 5 43 12 50 7 7 11 28 10 47 -2 19 2 35 8 35 5 0 10 -13 10
-29 0 -16 7 -34 15 -41 11 -9 14 -23 9 -45 -4 -24 -2 -34 10 -38 12 -5 16 -20
15 -62 -1 -30 4 -61 10 -69 8 -10 12 -75 13 -208 0 -106 -1 -197 -3 -203 -2
-5 1 -20 5 -33 7 -21 11 -16 38 40 16 35 36 75 44 90 8 14 12 33 9 40 -3 8 1
21 10 28 8 7 15 24 15 39 0 15 5 32 11 38 15 15 15 431 0 446 -6 6 -11 31 -11
54 0 24 -7 55 -16 68 -10 16 -14 34 -9 53 4 20 1 34 -9 45 -9 9 -16 32 -16 51
0 20 -4 36 -10 36 -5 0 -10 13 -10 29 0 17 -4 33 -10 36 -5 3 -10 16 -10 29 0
12 -7 31 -15 42 -8 10 -15 29 -15 41 0 12 -4 25 -10 28 -5 3 -10 17 -10 31 0
13 -4 24 -8 24 -13 0 -31 59 -20 66 12 7 48 -24 48 -43 0 -7 5 -13 10 -13 6 0
10 -4 10 -9 0 -5 16 -26 35 -47 19 -20 35 -41 35 -46 0 -5 10 -19 23 -31 36
-34 69 -86 62 -97 -3 -5 1 -10 10 -10 9 0 23 -16 31 -35 8 -19 19 -35 24 -35
6 0 10 -5 10 -12 0 -6 10 -25 23 -42 22 -29 62 -109 102 -201 9 -22 21 -48 26
-57 5 -10 9 -25 9 -34 0 -8 7 -22 15 -30 11 -11 12 -20 5 -34 -15 -27 -12 -50
5 -50 17 0 17 2 17 -145 -1 -84 -4 -112 -15 -120 -11 -8 -14 -27 -9 -83 4 -62
2 -73 -13 -78 -14 -6 -16 -15 -10 -60 6 -47 4 -54 -11 -54 -13 0 -15 -6 -11
-29 6 -31 -12 -79 -38 -101 -18 -15 -19 -30 -2 -30 15 0 71 45 106 84 14 16
43 47 64 69 20 22 37 43 37 48 0 5 7 9 15 9 8 0 15 8 15 19 0 10 9 30 20 44
11 14 20 30 20 36 0 6 4 19 9 29 22 41 49 110 56 141 6 28 9 31 17 18 12 -23
-1 -157 -17 -163 -8 -3 -10 -20 -7 -49 3 -37 1 -45 -12 -45 -13 0 -15 -7 -10
-40 6 -34 4 -40 -11 -40 -11 0 -15 -5 -11 -15 5 -14 -41 -117 -56 -123 -9 -4
-11 -52 -2 -52 28 0 114 91 114 120 0 6 5 10 10 10 6 0 10 7 10 15 0 8 7 15
15 15 8 0 15 9 15 20 0 22 30 61 41 54 4 -2 5 13 2 35 -3 23 -1 41 6 45 6 4
11 18 11 32 0 14 7 27 16 31 11 4 13 13 9 33 -4 19 -1 33 10 44 10 9 14 24 11
32 -8 21 25 74 61 97 15 11 39 34 53 53 14 18 31 34 38 34 6 0 12 7 12 15 0
19 69 125 81 125 5 0 9 6 9 13 0 18 24 67 33 67 4 0 7 8 7 19 0 10 7 24 15 31
8 7 15 21 15 31 0 11 5 28 10 39 6 11 15 29 20 40 6 11 10 35 10 54 0 18 6 39
14 45 9 8 12 25 9 55 -3 24 -1 52 5 63 15 28 18 466 3 471 -7 2 -11 29 -11 68
0 36 -4 64 -10 64 -5 0 -10 15 -10 33 -1 17 -7 43 -15 57 -8 14 -14 40 -15 58
0 17 -4 32 -9 32 -5 0 -14 21 -21 47 -6 26 -16 53 -22 60 -6 7 -8 28 -5 47 4
27 2 33 -11 32 -9 0 -17 6 -17 14 0 8 -6 19 -12 23 -7 4 -13 17 -13 27 0 11
-4 20 -10 20 -5 0 -10 9 -10 21 0 11 -10 35 -22 52 -21 30 -22 38 -19 237 2
183 1 208 -14 220 -14 12 -16 25 -10 82 6 54 4 73 -9 93 -9 14 -16 45 -16 75
0 27 -4 50 -9 50 -5 0 -11 24 -14 53 -8 76 -18 119 -33 142 -15 21 -19 75 -6
75 9 0 282 -396 282 -410 0 -5 5 -10 10 -10 6 0 14 -8 17 -17 4 -10 15 -27 25
-37 11 -12 16 -27 12 -39 -4 -12 -2 -17 4 -13 11 7 32 -16 58 -64 10 -19 27
-43 37 -54 9 -11 17 -23 17 -27 0 -4 6 -14 13 -21 6 -7 23 -35 37 -63 13 -27
34 -63 46 -80 11 -16 27 -46 34 -65 7 -19 18 -42 25 -50 6 -8 16 -27 23 -42 7
-16 17 -39 23 -52 6 -13 8 -29 5 -35 -4 -6 0 -11 10 -11 12 0 15 -6 11 -25 -3
-18 1 -29 14 -36 11 -5 19 -21 19 -34 0 -14 3 -25 8 -25 4 0 8 -14 8 -32 1
-18 6 -34 13 -36 6 -2 11 -21 11 -42 0 -21 5 -42 10 -45 6 -3 10 -22 10 -41 0
-19 6 -49 13 -67 9 -23 13 -93 12 -242 0 -206 -3 -231 -36 -297 -5 -10 -9 -27
-9 -37 0 -11 -5 -23 -10 -26 -5 -3 -10 -19 -10 -36 0 -16 -4 -29 -10 -29 -5 0
-10 -9 -10 -21 0 -11 -6 -27 -12 -34 -32 -36 -38 -46 -38 -65 0 -11 -4 -20 -8
-20 -5 0 -14 -10 -19 -23 -6 -12 -36 -50 -68 -84 -51 -56 -62 -83 -34 -83 5 0
26 17 45 38 20 20 49 51 65 68 16 16 29 34 29 40 0 5 12 23 26 39 57 67 59 70
97 137 6 13 22 36 35 51 12 16 22 37 22 47 0 10 5 22 10 25 6 3 10 17 10 31 0
13 5 24 10 24 6 0 10 12 10 26 0 14 7 33 16 42 13 12 15 27 10 66 -4 36 -1 60
9 80 17 33 19 79 5 107 -6 10 -12 56 -14 102 -2 46 -9 93 -15 105 -7 12 -11
41 -9 64 1 26 -3 43 -10 46 -7 2 -12 21 -12 42 0 21 -4 42 -10 45 -5 3 -10 19
-10 35 0 16 -4 32 -10 35 -5 3 -10 15 -10 27 0 11 -6 32 -14 46 -17 34 -36 94
-36 115 0 9 -4 17 -10 17 -5 0 -10 13 -10 29 0 16 -6 31 -15 35 -8 3 -15 12
-15 21 0 8 -4 24 -10 35 -5 11 -14 29 -20 40 -5 11 -10 29 -10 40 0 11 -4 20
-10 20 -5 0 -10 9 -10 19 0 10 -7 22 -16 25 -10 4 -13 13 -9 26 3 11 2 20 -4
20 -5 0 -13 10 -17 23 -4 12 -10 24 -14 27 -3 3 -18 28 -32 55 -13 28 -41 81
-61 119 -20 38 -34 73 -31 78 3 4 -1 8 -8 8 -7 0 -20 15 -27 32 -8 18 -25 48
-38 67 -13 19 -21 41 -19 48 3 7 -1 13 -9 13 -8 0 -15 7 -15 15 0 8 -4 15 -10
15 -5 0 -10 7 -10 15 0 9 -7 18 -15 21 -8 4 -15 12 -15 20 0 8 -4 14 -10 14
-5 0 -10 4 -10 10 0 5 -16 34 -35 64 -19 30 -35 60 -35 66 0 5 -3 10 -8 10 -4
0 -12 8 -17 19 -6 10 -27 44 -47 75 -21 31 -38 61 -38 68 0 6 -10 20 -22 32
-13 12 -30 35 -38 51 -8 17 -17 32 -20 35 -13 13 -60 91 -60 100 0 5 -4 10 -8
10 -5 0 -15 12 -23 28 -7 15 -23 41 -35 57 -12 17 -34 56 -49 88 -15 31 -32
57 -37 57 -5 0 -6 15 -2 35 5 27 3 36 -10 41 -14 5 -16 19 -15 78 2 54 -1 78
-14 96 -9 14 -14 33 -11 46 3 13 -1 33 -11 48 -9 14 -14 34 -11 44 4 11 0 24
-9 32 -9 7 -15 29 -15 51 0 22 -4 39 -10 39 -5 0 -10 11 -10 25 0 23 -6 40
-36 112 -8 17 -14 40 -14 51 0 12 -4 24 -10 27 -5 3 -10 17 -10 30 0 13 -8 38
-17 57 -31 62 -33 67 -27 81 3 8 -2 17 -10 20 -9 4 -16 18 -16 32 0 14 -4 25
-10 25 -5 0 -10 9 -10 19 0 11 -4 23 -10 26 -5 3 -10 19 -10 35 0 15 -6 30
-13 33 -8 3 -20 26 -27 51 -7 26 -17 49 -21 52 -5 3 -9 14 -9 25 0 10 -4 19
-10 19 -5 0 -10 6 -10 14 0 7 -7 19 -15 26 -8 7 -15 21 -15 31 0 11 -4 19 -10
19 -5 0 -10 7 -10 15 0 9 -10 32 -23 53 -13 20 -21 45 -19 55 2 9 -1 17 -7 17
-14 0 -41 58 -34 76 3 8 -1 14 -9 14 -8 0 -23 16 -34 35 -10 19 -22 35 -26 35
-5 0 -8 9 -8 20 0 11 -4 20 -10 20 -5 0 -10 9 -10 19 0 10 -6 21 -14 24 -8 3
-20 22 -27 41 -7 20 -17 36 -21 36 -4 0 -8 9 -8 20 0 11 -4 20 -10 20 -5 0
-10 5 -10 11 0 6 -9 22 -20 36 -11 14 -20 36 -20 49 0 13 -4 24 -10 24 -8 0
-80 103 -80 115 0 2 -12 17 -27 33 -34 36 -57 62 -112 132 -117 148 -249 285
-391 408 -129 109 -182 151 -212 165 -16 6 -28 16 -28 22 0 5 -24 21 -53 35
-28 14 -58 31 -66 38 -7 7 -27 16 -43 19 -16 3 -32 12 -35 19 -3 8 -13 14 -23
14 -11 0 -22 5 -25 10 -3 6 -14 10 -25 10 -10 0 -20 7 -24 15 -3 8 -12 12 -21
9 -8 -4 -17 1 -21 10 -3 9 -17 16 -30 16 -13 0 -24 5 -24 10 0 6 -9 10 -20 10
-11 0 -20 6 -20 14 0 8 -11 14 -27 14 -15 0 -29 5 -31 11 -2 6 -20 11 -39 11
-25 0 -34 4 -30 13 3 9 -5 12 -29 9 -25 -3 -35 0 -40 13 -5 13 -14 15 -44 10
-26 -4 -42 -2 -52 8 -8 9 -25 13 -39 10 -14 -2 -59 2 -100 10 -86 18 -483 29
-629 18z m-736 -2323 c30 -200 50 -305 76 -388 10 -36 37 -130 59 -210 58
-207 90 -311 107 -342 7 -14 14 -35 14 -45 0 -11 11 -42 25 -69 30 -59 31 -64
5 -64 -11 0 -20 4 -20 9 0 5 -8 11 -17 15 -10 3 -34 18 -54 33 -20 16 -72 54
-115 85 -44 31 -99 75 -124 97 -25 22 -55 50 -68 61 -14 12 -21 27 -18 38 3 9
10 64 16 122 5 58 17 159 25 225 9 66 20 156 25 200 17 139 20 159 32 213 13
59 25 67 32 20z m2240 -437 c9 -28 16 -57 16 -66 0 -8 4 -23 9 -33 5 -9 17
-48 26 -87 9 -38 20 -79 25 -90 7 -18 27 -87 81 -285 l18 -65 -26 -33 c-31
-41 -46 -37 -55 14 -3 21 -18 107 -33 189 -14 83 -28 159 -29 170 -2 11 -16
79 -30 150 -14 72 -28 142 -31 158 -8 45 12 30 29 -22z m-859 -396 c28 -95 41
-135 73 -215 48 -121 120 -269 144 -300 52 -64 73 -93 82 -111 11 -22 34 -25
42 -5 3 8 -1 27 -9 43 -41 81 -25 99 25 28 l32 -45 108 0 c59 0 108 -3 108 -7
0 -5 -14 -16 -30 -25 -32 -18 -40 -38 -15 -38 9 0 32 10 53 23 73 45 88 48
159 36 67 -12 173 -6 219 11 28 11 28 12 -3 157 -8 39 -12 80 -9 91 7 19 63
79 69 71 2 -2 21 -65 42 -139 20 -74 46 -165 57 -202 32 -114 51 -101 50 33
-1 115 18 129 48 34 12 -40 32 -89 53 -134 19 -39 46 -51 92 -41 22 5 64 10
93 10 70 0 70 9 -9 -250 -16 -52 -35 -117 -43 -145 -34 -120 -60 -201 -66
-210 -6 -9 -29 -106 -71 -293 -5 -23 -9 -60 -9 -81 0 -75 -52 -302 -80 -353
-6 -10 -10 -22 -10 -28 0 -12 -61 -141 -82 -175 -21 -33 -109 -136 -178 -209
-97 -102 -327 -271 -485 -356 -44 -23 -120 -67 -170 -98 -108 -65 -292 -154
-357 -172 -65 -17 -153 -2 -333 57 -33 11 -94 30 -135 42 -41 12 -104 33 -140
46 -36 13 -86 31 -112 39 -57 19 -103 39 -273 121 -167 81 -224 117 -327 202
-101 85 -146 134 -154 171 -3 15 -12 47 -19 72 -43 152 -49 176 -85 370 -52
277 -102 650 -90 664 7 7 49 -72 50 -93 0 -3 9 -17 20 -31 18 -23 20 -23 20
-5 0 11 -6 38 -14 60 -8 22 -17 67 -21 100 -6 59 -5 62 32 112 36 50 77 82 88
71 3 -3 0 -28 -6 -57 -14 -64 1 -184 31 -262 19 -48 93 -159 110 -167 4 -1 40
-23 81 -47 47 -29 84 -44 101 -43 15 2 36 -6 48 -17 20 -18 22 -18 31 -2 12
21 52 22 68 3 9 -11 20 -12 47 -4 19 5 49 6 65 3 32 -7 38 1 12 20 -15 11 -15
14 9 36 30 28 90 121 105 164 29 81 38 138 38 255 0 109 -3 133 -24 183 -13
31 -27 57 -32 57 -5 0 -9 7 -9 15 0 19 39 19 145 0 97 -17 162 -32 237 -55 31
-10 59 -16 62 -12 13 13 4 40 -20 63 -38 35 -54 71 -43 92 6 9 17 17 24 17 36
0 8 52 -38 69 -97 37 -252 61 -397 61 -272 0 -491 -69 -648 -204 -39 -34 -137
-159 -151 -194 -20 -49 -39 -40 -46 21 -16 139 -24 281 -16 294 12 22 158 85
208 91 l43 5 0 254 c0 252 14 443 33 443 5 0 29 -17 52 -37 61 -55 194 -156
298 -226 112 -77 154 -117 189 -185 33 -62 63 -72 52 -17 l-6 34 62 -27 c35
-15 86 -48 115 -74 40 -37 70 -53 131 -73 43 -13 91 -25 105 -25 14 0 57 -11
95 -25 72 -26 114 -32 114 -15 0 5 -11 12 -25 16 -21 5 -54 32 -44 35 2 1 69
5 149 10 192 10 300 20 304 28 3 4 -2 33 -10 66 -20 83 -28 120 -59 270 -40
191 -44 214 -51 280 -8 73 6 65 31 -20z m-1368 -1027 c6 -7 13 -25 17 -40 5
-24 9 -26 30 -18 13 5 27 6 30 3 10 -11 7 -38 -8 -58 -13 -18 -16 -18 -42 -5
-24 13 -28 13 -32 1 -18 -53 -100 -81 -122 -42 -17 33 3 105 43 149 22 24 69
30 84 10z m-2517 -97 c0 -11 -4 -23 -10 -26 -5 -3 -10 -26 -10 -51 0 -25 -7
-56 -16 -69 -12 -18 -15 -37 -10 -69 5 -30 2 -56 -9 -83 -13 -34 -16 -76 -13
-247 3 -198 1 -212 -26 -207 -5 1 -21 -10 -36 -24 -14 -14 -29 -22 -33 -18 -4
3 -7 0 -7 -9 0 -8 -12 -21 -27 -29 -16 -8 -34 -21 -40 -29 -11 -13 -15 -12
-32 10 -16 20 -20 41 -20 115 0 49 5 108 10 130 26 98 42 151 50 159 5 6 9 20
9 33 0 13 5 23 10 23 6 0 10 11 10 24 0 13 7 29 15 36 8 7 15 21 15 31 0 11 5
19 10 19 6 0 10 8 10 18 0 27 23 72 38 72 6 0 12 11 12 25 0 14 5 25 10 25 6
0 10 9 10 20 0 11 6 23 14 26 8 3 12 12 9 19 -2 8 5 28 16 44 12 16 21 34 21
40 0 6 5 11 10 11 6 0 10 -9 10 -19z m2871 -202 c50 -17 112 -84 104 -112 -14
-49 -69 -143 -106 -181 l-40 -41 -100 2 c-101 1 -125 8 -170 52 -34 33 -89
113 -89 129 0 20 90 122 106 122 7 0 19 -11 28 -25 24 -37 67 -55 112 -48 36
5 84 36 84 54 0 17 20 59 28 59 5 0 24 -5 43 -11z m3756 -481 c-3 -11 0 -18 9
-18 8 0 14 -10 14 -24 0 -13 7 -26 15 -30 8 -3 15 -15 15 -26 0 -11 7 -37 16
-58 9 -20 16 -47 15 -58 -1 -12 4 -28 11 -35 13 -13 32 -66 42 -119 3 -14 11
-44 18 -68 8 -28 9 -46 3 -50 -17 -12 -18 -62 -1 -62 22 0 29 -35 21 -117 -4
-43 -3 -79 3 -86 5 -7 12 -33 16 -58 5 -37 3 -50 -10 -63 -14 -14 -16 -29 -10
-92 5 -52 2 -97 -9 -151 -15 -75 -79 -258 -96 -278 -5 -5 -9 -17 -9 -26 0 -9
-7 -20 -16 -23 -8 -3 -13 -10 -10 -15 6 -10 -49 -71 -64 -71 -4 0 -6 -8 -3
-19 3 -12 -10 -34 -41 -67 -25 -27 -46 -54 -46 -60 0 -16 -28 -26 -35 -13 -4
5 -3 78 2 162 4 83 7 159 6 167 -2 8 -7 83 -13 165 -5 83 -14 179 -19 215 -6
36 -8 74 -5 85 3 11 -2 34 -10 50 -29 56 -15 266 20 306 8 8 14 23 14 32 0 9
5 19 10 22 6 3 10 16 10 28 1 24 33 123 44 134 3 3 6 26 6 49 0 24 5 46 10 49
6 3 10 29 10 56 0 28 7 64 16 81 11 22 14 43 9 74 -3 24 -3 49 0 55 11 16 47
-22 42 -43z m-4120 -841 c42 -35 162 -111 218 -139 28 -14 73 -37 100 -51 72
-39 148 -71 245 -105 169 -60 346 -119 390 -132 25 -8 49 -17 53 -21 13 -10
-8 -45 -79 -130 -102 -122 -181 -269 -145 -269 5 0 19 17 32 38 50 82 60 98
71 120 15 30 36 28 49 -5 5 -15 33 -72 61 -127 48 -96 50 -102 38 -136 -16
-45 -71 -131 -124 -195 -23 -27 -48 -62 -56 -77 -17 -34 -20 -34 -73 -1 -101
63 -211 156 -334 281 -128 131 -157 166 -275 345 -85 127 -168 281 -168 309 0
8 -6 22 -14 33 -7 11 -19 38 -26 60 -7 22 -16 45 -20 50 -18 25 -20 70 -5 121
8 30 20 54 25 54 4 0 21 -11 37 -23z m-445 -439 c49 -34 55 -100 42 -426 -8
-209 10 -491 37 -585 11 -37 39 -105 63 -151 59 -114 76 -169 76 -245 -1 -75
-23 -251 -34 -269 -12 -21 -36 -122 -38 -163 -1 -22 -5 -42 -10 -45 -4 -3 -8
-17 -8 -32 -1 -37 -45 -211 -57 -223 -6 -6 -17 8 -32 40 l-22 50 26 46 c23 38
26 53 21 89 -5 34 -3 46 10 57 23 19 54 88 54 121 0 18 -16 46 -50 85 -28 32
-83 99 -124 148 -115 140 -181 195 -236 195 -36 0 -21 -24 32 -50 48 -24 115
-99 182 -205 10 -16 45 -56 77 -89 65 -66 76 -93 55 -134 -28 -54 -39 -55 -82
-13 -60 59 -113 91 -150 91 -43 0 -44 -14 -1 -30 39 -15 197 -177 197 -202 0
-10 -23 -42 -50 -70 -53 -55 -57 -74 -18 -80 33 -4 50 -49 51 -132 1 -75 -10
-107 -62 -176 -40 -53 -75 -85 -109 -99 -27 -11 -30 -17 -26 -40 8 -38 -17
-57 -54 -42 -23 10 -39 7 -101 -14 -88 -30 -153 -32 -201 -7 -28 16 -38 31
-62 98 -37 104 -51 121 -143 174 -43 25 -87 57 -98 72 -29 39 -33 112 -9 191
29 97 18 134 -59 193 -80 61 -103 95 -96 144 11 85 114 262 195 333 35 32 151
54 385 74 37 3 67 9 67 14 0 17 -70 20 -184 9 -130 -13 -174 -15 -180 -9 -2 2
-6 31 -8 64 -2 48 0 60 12 61 8 1 19 2 24 3 19 2 -19 32 -72 57 -67 31 -287
104 -313 104 -10 0 -43 11 -73 24 -42 19 -60 34 -80 68 -32 56 -33 72 0 112
14 17 40 53 57 80 59 91 174 148 298 148 97 0 184 -35 286 -114 23 -18 65 -52
95 -74 59 -46 115 -130 130 -196 5 -24 7 -73 3 -110 -7 -72 5 -91 27 -43 13
29 34 33 42 7 4 -10 20 -34 36 -52 17 -19 30 -39 30 -46 0 -6 7 -17 15 -24 26
-22 18 19 -20 98 -35 73 -35 74 -23 141 12 70 7 140 -26 346 -24 148 -16 436
13 493 5 9 16 35 26 58 18 45 98 115 143 125 36 8 71 0 104 -23z m1568 -625
c61 -128 70 -150 91 -228 24 -90 25 -245 3 -323 -19 -64 -92 -208 -133 -262
-15 -19 -39 -53 -53 -75 -48 -73 -141 -162 -208 -198 l-66 -36 0 117 c0 107
-3 125 -33 207 -43 119 -105 249 -147 308 -19 26 -34 52 -34 57 0 6 15 10 34
10 48 0 54 17 12 34 -32 13 -154 102 -220 160 -47 41 -22 42 46 1 80 -47 243
-117 333 -141 77 -21 237 -25 358 -10 103 14 104 39 1 57 -75 14 -239 97 -239
121 0 10 28 51 63 92 64 75 93 119 113 169 6 15 17 27 24 27 8 0 32 -39 55
-87z m886 -767 c40 -40 42 -61 12 -113 -33 -59 -88 -172 -88 -183 0 -6 -4 -18
-9 -28 -5 -9 -21 -46 -36 -82 -15 -36 -31 -73 -36 -82 -5 -10 -9 -50 -9 -90 0
-40 -7 -122 -16 -182 -15 -100 -15 -110 0 -118 19 -10 21 -59 4 -76 -6 -6 -9
-14 -6 -17 5 -6 38 24 83 76 17 19 46 41 65 49 42 18 206 20 241 4 13 -7 44
-20 69 -30 68 -27 182 -107 227 -157 60 -69 81 -120 93 -227 6 -52 13 -107 16
-121 9 -41 -30 -78 -90 -86 -41 -5 -48 -4 -44 9 5 12 -10 17 -75 26 -97 13
-169 35 -256 79 -36 18 -67 30 -69 28 -7 -6 47 -65 81 -88 17 -12 17 -15 3
-42 -15 -29 -15 -30 32 -79 26 -27 53 -56 60 -64 30 -33 4 -143 -53 -227 -61
-90 -65 -104 -65 -236 0 -88 -4 -130 -15 -152 -14 -29 -98 -94 -164 -127 -39
-20 -72 -66 -126 -173 -38 -77 -61 -110 -99 -141 -47 -40 -50 -41 -120 -41
-59 1 -79 5 -121 29 -123 69 -215 161 -319 321 -37 55 -46 78 -46 113 0 37 6
49 38 80 20 21 51 47 69 60 31 22 83 30 83 13 0 -11 144 -117 203 -150 86 -48
67 -12 -28 52 -81 55 -182 132 -227 174 -35 31 -38 38 -38 86 0 65 39 134 97
170 57 36 75 39 139 21 95 -26 276 -55 234 -38 -8 4 -28 12 -45 19 -16 8 -61
21 -100 29 -38 9 -87 22 -108 28 -29 9 -49 9 -80 1 -36 -10 -45 -9 -70 9 -28
20 -29 23 -23 80 6 49 4 62 -9 72 -14 10 -14 19 -6 56 6 25 11 91 11 148 0 93
3 108 30 165 16 34 55 97 85 141 30 43 58 90 61 105 3 14 16 55 29 91 33 93
37 114 40 278 2 81 9 170 15 197 52 208 228 373 399 375 36 0 49 -6 77 -34z"/>
<path d="M7256 6913 c-4 -4 -67 -10 -139 -14 -77 -3 -159 -13 -197 -24 -100
-28 -220 -122 -266 -210 -6 -11 -17 -30 -24 -42 -27 -42 -8 -39 128 23 92 42
330 78 481 72 44 -1 82 0 85 3 4 3 -1 23 -10 45 -16 37 -15 39 7 57 18 14 24
30 25 58 l0 39 -41 0 c-23 0 -45 -3 -49 -7z"/>
<path d="M6070 5889 c-25 -4 -82 -8 -127 -8 -137 -1 -252 -66 -298 -167 -30
-66 -34 -174 -8 -249 25 -74 138 -175 197 -175 17 0 15 4 -14 30 -19 16 -40
29 -45 30 -13 0 -60 53 -91 102 -21 33 -24 50 -24 139 0 98 1 102 34 152 39
59 80 87 124 87 17 0 33 4 36 9 3 5 79 9 169 10 248 2 265 -9 266 -176 1 -75
-2 -87 -29 -130 -16 -26 -30 -52 -30 -58 0 -6 -28 -38 -62 -71 -75 -72 -176
-124 -243 -124 -61 0 -69 -20 -8 -22 26 0 56 -1 65 0 77 7 257 147 311 244 24
44 83 197 94 245 9 39 -21 69 -94 96 -126 48 -144 50 -223 36z"/>
<path d="M850 9715 c0 -2 13 -24 29 -47 16 -24 82 -128 147 -233 65 -104 134
-213 154 -240 21 -28 40 -60 44 -72 8 -24 11 -23 -109 -49 -44 -9 -115 -25
-159 -35 -135 -32 -121 -62 -119 257 3 276 -2 358 -18 348 -5 -3 -9 -94 -9
-202 0 -108 -5 -252 -12 -320 -11 -116 -13 -123 -35 -128 -13 -4 -32 -4 -43
-1 -11 3 -20 2 -20 -3 0 -11 -115 -33 -177 -34 -38 -1 -53 -5 -53 -15 0 -11
-14 -13 -70 -7 -59 5 -70 4 -70 -9 0 -8 -6 -15 -14 -15 -8 0 -17 -4 -21 -10
-9 -14 18 -50 38 -50 28 0 59 -20 54 -35 -4 -8 1 -11 12 -8 10 2 40 -8 67 -23
97 -54 110 -60 152 -74 23 -7 47 -19 53 -27 6 -7 18 -13 25 -13 8 0 24 -5 37
-12 12 -6 29 -14 37 -18 13 -6 16 -65 20 -406 l5 -399 26 -3 c20 -2 31 5 51
35 14 21 38 52 54 68 16 17 29 33 29 36 0 8 129 152 215 241 36 37 87 90 113
119 52 55 54 55 117 18 8 -5 25 -14 38 -19 13 -5 20 -14 17 -20 -3 -6 1 -7 10
-4 9 4 26 2 38 -3 12 -6 47 -22 77 -36 30 -13 87 -39 125 -58 39 -18 88 -36
110 -40 22 -4 57 -10 78 -14 35 -7 37 -6 37 17 0 14 -16 45 -35 69 -19 24 -35
50 -35 56 0 7 -20 33 -45 57 -25 25 -45 49 -45 53 -1 5 -28 44 -60 88 -33 44
-72 97 -86 117 l-27 38 25 32 c26 34 52 62 144 160 30 32 54 59 54 62 0 2 17
21 38 42 45 47 144 162 154 179 4 7 1 18 -7 25 -8 7 -15 19 -15 26 0 11 -20
14 -90 14 -66 0 -89 -3 -87 -12 2 -15 -147 -31 -207 -23 -22 3 -44 1 -52 -6
-8 -7 -53 -13 -101 -14 -56 -1 -88 -6 -91 -13 -2 -7 -18 -12 -36 -12 -27 0
-38 8 -64 44 -18 24 -32 49 -32 54 0 5 -7 12 -15 16 -8 3 -15 11 -15 19 0 7
-8 22 -17 33 -20 21 -113 161 -113 168 0 3 -11 17 -25 32 -16 18 -23 34 -19
46 3 12 1 17 -7 16 -7 -2 -23 13 -36 32 -13 19 -30 43 -38 53 -8 9 -15 22 -15
27 0 13 -57 70 -70 70 -5 0 -10 -2 -10 -5z m1110 -596 c0 -5 -32 -45 -72 -87
-138 -148 -218 -236 -278 -305 -25 -29 -35 -35 -46 -26 -10 8 -100 140 -149
218 -6 9 -27 42 -48 73 -20 31 -37 63 -37 71 0 15 86 30 269 47 51 5 96 12 99
15 11 10 262 5 262 -6z m-694 -67 c6 -4 32 -41 58 -82 47 -74 82 -126 165
-245 22 -33 41 -65 41 -70 0 -16 -186 -215 -201 -215 -7 0 -192 85 -279 129
-8 4 -55 25 -105 45 -129 54 -120 45 -119 115 1 33 2 101 3 150 l1 89 33 4
c37 5 238 51 312 72 61 16 77 18 91 8z m-478 -172 c4 -84 -7 -190 -20 -190 -5
0 -25 7 -44 15 -19 8 -51 22 -71 31 -93 40 -263 127 -263 135 0 10 50 23 159
39 46 7 105 19 130 26 25 7 60 12 76 11 30 -2 30 -3 33 -67z m128 -301 c38
-18 107 -50 154 -72 47 -22 113 -52 147 -68 34 -16 64 -33 67 -38 3 -4 -45
-62 -107 -127 -175 -185 -219 -234 -276 -307 -38 -48 -57 -65 -64 -58 -12 12
-24 658 -14 686 9 21 15 20 93 -16z m671 9 c11 -13 41 -54 68 -93 27 -38 86
-118 132 -177 46 -58 83 -109 83 -112 0 -14 -41 -4 -98 24 -34 17 -65 30 -67
30 -3 0 -40 16 -83 36 -42 20 -95 44 -117 54 -104 47 -117 54 -122 66 -4 12
162 194 177 194 4 0 16 -10 27 -22z"/>
<path d="M9251 3558 c-7 -12 -17 -69 -22 -127 -5 -58 -13 -137 -18 -174 -5
-38 -7 -76 -4 -85 3 -13 -12 -23 -64 -41 -37 -13 -79 -23 -93 -23 -13 0 -29
-7 -35 -15 -8 -11 -22 -14 -43 -11 -24 3 -32 1 -32 -10 0 -11 -9 -13 -38 -10
-41 6 -82 -17 -82 -45 0 -16 62 -57 86 -57 8 0 33 -9 57 -20 23 -10 67 -29 97
-40 89 -35 124 -53 134 -69 5 -9 11 -72 14 -141 2 -69 10 -156 18 -195 8 -38
18 -82 21 -97 7 -37 39 -36 56 2 4 8 18 33 32 55 14 22 30 50 35 63 5 12 14
22 20 22 5 0 10 7 10 15 0 8 5 15 10 15 6 0 10 4 10 10 0 5 7 18 15 27 8 10
25 34 38 53 20 30 28 35 58 32 19 -2 38 -8 43 -13 6 -5 20 -9 32 -9 12 0 35
-6 51 -14 15 -8 48 -20 73 -27 25 -7 49 -16 54 -21 6 -4 17 -8 25 -8 8 0 29
-11 47 -25 45 -34 80 -33 89 2 4 17 2 29 -5 31 -6 2 -32 36 -57 75 -50 79
-135 205 -167 251 -15 20 -17 30 -9 33 7 2 10 10 7 16 -5 14 31 57 47 57 6 0
7 5 4 10 -4 6 10 33 29 60 20 28 36 53 36 58 0 4 9 18 20 32 11 14 20 32 20
41 0 9 7 20 16 23 9 3 14 15 12 28 -3 21 -7 23 -63 20 -33 -2 -64 -8 -69 -13
-6 -5 -29 -9 -52 -9 -26 0 -47 -6 -55 -16 -9 -11 -22 -14 -44 -10 -20 4 -38 1
-50 -9 -34 -25 -64 -18 -86 20 -12 19 -25 35 -30 35 -5 0 -9 7 -9 15 0 8 -4
15 -10 15 -5 0 -10 7 -10 15 0 8 -4 15 -8 15 -9 0 -92 117 -92 129 0 4 -9 16
-20 26 -11 10 -20 24 -20 31 0 22 -16 23 -29 2z m71 -127 c13 -22 45 -70 71
-107 26 -36 47 -73 45 -81 -3 -13 -132 -63 -165 -63 -15 0 -17 107 -6 223 7
79 21 86 55 28z m451 -274 c-70 -108 -92 -137 -103 -137 -10 0 -130 162 -130
176 0 13 13 19 70 29 85 14 186 39 194 46 5 5 15 4 22 -2 10 -8 -2 -34 -53
-112z m-267 5 c6 -13 23 -36 38 -51 14 -15 26 -31 26 -35 0 -9 52 -80 63 -84
13 -6 7 -37 -13 -62 -59 -74 -98 -127 -109 -147 -6 -13 -18 -23 -26 -23 -23 0
-209 90 -222 107 -16 21 -18 215 -3 243 6 11 39 28 83 41 39 13 76 27 82 31
19 17 69 4 81 -20z m-298 -161 c1 -52 -2 -99 -7 -104 -6 -6 -24 -2 -51 12 -22
11 -78 35 -123 52 -121 47 -125 56 -27 83 30 8 78 24 105 35 28 11 61 19 75
18 25 -2 25 -4 28 -96z m567 -225 c52 -76 92 -142 90 -147 -3 -4 -18 -2 -33 6
-58 29 -227 85 -254 85 -9 0 -21 6 -27 14 -9 11 1 32 50 100 34 48 66 85 70
84 5 -2 52 -65 104 -142z m-411 -16 c47 -23 86 -46 86 -52 0 -9 -49 -81 -110
-160 -11 -14 -20 -30 -20 -36 0 -5 -9 -17 -21 -28 -17 -16 -22 -16 -29 -4 -12
19 -13 320 -1 320 4 0 47 -18 95 -40z"/>
</g>
</svg>
