<?xml version="1.0" encoding="UTF-8"?>
<svg version="1.0" viewBox="0 0 102.21 78.793" xmlns="http://www.w3.org/2000/svg">
 <defs>
  <filter id="a">
   <feGaussianBlur stdDeviation="0.6855573"/>
  </filter>
 </defs>
 <g transform="translate(-223.9 -167.97)">
  <path d="m309.87 241.9c-1.4574-1.0378-1.5591-1.2487-0.82595-1.7119 0.4056-0.25624 2.131-2.2649 3.0248-3.5214 0.18508-0.26018 0.85572-1.1774 1.4903-2.0383 1.1661-1.582 1.6765-2.4456 1.6804-2.8435 5e-3 -0.55011 1.0825-0.75877 1.6283-0.31544 0.13678 0.1111 0.44339 0.32917 0.68136 0.48461 0.23797 0.15543 0.89938 0.61935 1.4698 1.0309 0.57043 0.41158 1.3115 0.94302 1.6468 1.181 1.4098 1.0006 1.9793 1.4984 1.9793 1.7303 0 0.19668-0.78381 1.2784-1.0732 1.4811-0.39967 0.27993-1.1382 0.14114-1.1382-0.21388 0-0.31314-0.3555-0.86863-0.77989-1.2186-0.94125-0.77624-1.9144-1.4904-2.0299-1.4898-0.0675 3.6e-4 -0.22002 0.14358-0.33894 0.31827-0.11892 0.17468-0.29757 0.40493-0.397 0.51165-0.0994 0.10673-0.42438 0.50934-0.72212 0.8947l-0.5414 0.7006 0.4462 0.3928c0.48877 0.43023 0.75908 0.61312 2.2155 1.499 1.1567 0.70356 1.2217 0.76806 1.0988 1.0912-0.11675 0.30708-0.54285 0.45616-1.3038 0.45616-1.0028 0-1.8587-0.34786-3.1757-1.2906-0.26424-0.18915-0.51166-0.34391-0.54982-0.34391-0.13259 0-1.9001 2.525-1.9053 2.7219-2e-3 0.063-0.0666 0.19846-0.14422 0.30111-0.0776 0.10265-0.14117 0.2649-0.14117 0.36055 0 0.33183-0.34776 0.5592-0.84129 0.55003-0.40758-8e-3 -0.56395-0.0848-1.4537-0.71846z"/>
  <path d="m311.62 242.04c0.13984-0.11 0.22848-0.2417 0.19697-0.29268-0.0315-0.051 0.0113-0.19741 0.0952-0.32543s0.15251-0.27792 0.15251-0.33312 0.12979-0.27955 0.28844-0.49855c0.15864-0.219 0.28844-0.44053 0.28844-0.49229 0-0.0518 0.15144-0.26173 0.33652-0.46659 0.18508-0.20487 0.33652-0.43726 0.33652-0.51644 0-0.0792 0.0374-0.14394 0.0831-0.14394s0.20301-0.17306 0.34959-0.38459c0.37995-0.54826 0.59597-0.51649 1.7419 0.25614 0.52265 0.3524 1.1987 0.742 1.5023 0.86577 0.61249 0.24969 1.4585 0.31274 1.7931 0.13363 0.20116-0.10766 0.16049-0.14254-0.6324-0.54247-1.4015-0.7069-2.9175-1.7462-2.7228-1.8666 0.072-0.0445 0.0582-0.10475-0.0431-0.18881-0.3158-0.2621-0.0845-0.87509 0.61145-1.6202 0.16358-0.17513 0.29741-0.34353 0.29741-0.37423 0-0.064 0.85915-1.0957 1.0074-1.2098 0.17804-0.13692 0.72852 0.0125 1.0567 0.28678 0.17738 0.14826 0.47996 0.37773 0.6724 0.50993 1.235 0.8484 1.963 1.6861 1.8478 2.1264-0.0456 0.17427-0.0206 0.19069 0.20518 0.13405 0.25916-0.065 0.7759-0.58135 0.78313-0.78246 0-0.0596 0.0689-0.16227 0.14816-0.22811 0.21194-0.17587 0.1787-0.25761-0.15143-0.37269-0.16261-0.0567-0.27008-0.14447-0.23879-0.19506 0.0618-0.10002-0.10146-0.23124-0.33076-0.26584-0.0793-0.0119-0.21168-0.10516-0.2942-0.20711-0.0826-0.10196-0.28814-0.25675-0.45684-0.34399-0.16871-0.0872-0.30672-0.20077-0.30672-0.25229 0-0.0515-0.0557-0.0937-0.12382-0.0937-0.0681 0-0.27362-0.12804-0.45671-0.28454-0.18308-0.15649-0.37848-0.28629-0.4342-0.28844-0.0557-2e-3 -0.24529-0.15244-0.42125-0.33399-0.17596-0.18154-0.45487-0.3856-0.61979-0.45346-0.16493-0.0679-0.36476-0.1974-0.44408-0.28786-0.0793-0.0905-0.29566-0.24442-0.48074-0.34213-0.49807-0.26293-0.89933-0.52728-1.0217-0.67309-0.0811-0.0966-0.17224-0.10474-0.36276-0.0323-0.21051 0.08-0.24398 0.13854-0.19376 0.33865 0.0375 0.14946 0.02 0.24191-0.0459 0.24191-0.0586 0-0.10714 0.0757-0.10783 0.16826-1e-3 0.1472-0.67577 1.2554-1.0975 1.8028-0.15022 0.19495-0.61142 0.80255-0.8758 1.1538-0.0796 0.10576-0.30609 0.43937-0.50328 0.74135-0.6568 1.0058-3.1812 3.994-3.6103 4.2736l-0.4136 0.2695 0.8514 0.6508c0.46826 0.35797 0.88747 0.65085 0.93158 0.65085 0.0441 0 0.13405 0.0649 0.19988 0.14422 0.16192 0.1951 0.31127 0.18151 0.61292-0.0558z"/>
  <path d="m237.47 230.95c-0.65941-0.2158-1.0521-0.50811-1.413-1.0518-0.60811-0.91616-0.40303-1.8498 0.72163-3.2852 1.4373-1.8345 2.3071-3.3143 2.3071-3.9249 0-0.12439-0.0795-0.32435-0.17668-0.44436l-0.1767-0.2182-0.4723 0.697c-0.25977 0.38337-0.67783 0.97631-0.92902 1.3176-0.25118 0.34133-0.4567 0.6551-0.4567 0.69727 0 0.0422-0.22715 0.38736-0.50478 0.76708-0.27762 0.37973-0.62425 0.87326-0.77028 1.0968-0.14603 0.22348-0.54624 0.80775-0.88937 1.2984-0.34312 0.49061-0.62386 0.91705-0.62386 0.94764 0 0.0306 0.10817 0.1407 0.24037 0.24469 0.32653 0.25685 0.3081 0.62202-0.0564 1.1177-0.28413 0.38635-0.31859 0.40353-0.8092 0.40353-0.46092 0-0.58621-0.0507-1.2461-0.50478-0.40352-0.27762-0.86607-0.57729-1.0279-0.66593-0.16182-0.0886-0.38973-0.25088-0.50647-0.36055s-0.24651-0.1994-0.28837-0.1994c-0.0419 0-0.23863-0.12872-0.43726-0.28603-0.43605-0.34537-1.3479-0.96389-1.421-0.96389-0.0289 0-0.23735-0.15144-0.46322-0.33652-0.22588-0.18509-0.44221-0.33652-0.48075-0.33652-0.0385 0-0.24758-0.14255-0.46456-0.31679-0.21696-0.17423-0.65409-0.4853-0.97138-0.69126-1.2122-0.78686-2.2595-1.6069-2.2595-1.7691 0-0.23965 0.52756-1.0356 0.77372-1.1673 0.12662-0.0678 0.37215-0.0879 0.6195-0.0508 0.38598 0.0579 0.42155 0.0431 0.6132-0.25513 0.1119-0.17413 0.38015-0.55456 0.59612-0.8454 0.21596-0.29085 0.78321-1.1129 1.2605-1.8268 0.47734-0.7139 0.89748-1.3196 0.93365-1.3461 0.0362-0.0264 0.31466-0.41583 0.61887-0.86533 0.30421-0.44949 0.73529-1.079 0.95797-1.3989 0.22267-0.31991 0.44812-0.64971 0.501-0.73288 0.0529-0.0832 0.4331-0.64349 0.84493-1.2452 0.41183-0.60166 1.047-1.551 1.4115-2.1096 1.0152-1.5559 1.333-1.8152 2.2996-1.8765 0.54952-0.0349 0.62356 6e-3 2.7512 1.5165 0.99342 0.70529 2.0503 1.453 2.3556 1.6666 1.9573 1.3693 2.2114 1.6305 2.2114 2.2736 0 0.30706-0.14762 0.59692-0.83738 1.6443-0.78212 1.1877-0.98588 1.4779-1.6818 2.3957-0.14802 0.1952-0.26912 0.3901-0.26912 0.43311 0 0.043 0.19008 0.22943 0.4224 0.41427 0.63964 0.50891 0.87639 1.0131 0.87188 1.8568-3e-3 0.62509-0.0416 0.76377-0.37657 1.3662-0.20507 0.3688-0.4631 0.80034-0.57342 0.95898-0.1103 0.15865-0.24372 0.36104-0.29646 0.44976-0.10167 0.17101-1.0382 1.5022-1.679 2.3866-0.49338 0.68091-0.56634 1.0233-0.29233 1.3716 0.38908 0.49464 0.71116 0.27032 1.3564-0.94471 0.16681-0.31412 0.54951-1.0254 0.85043-1.5807 0.30093-0.55525 0.57717-1.0744 0.61388-1.1538 0.0367-0.0793 0.17839-0.33892 0.31484-0.57689 0.61285-1.0688 1.7043-3.2338 1.881-3.7314 0.13356-0.37591 0.20978-0.89325 0.24353-1.6529 0.0431-0.97111 0.0245-1.1676-0.15346-1.614-0.27376-0.68694-0.25728-0.85035 0.12432-1.2319 0.24935-0.24936 0.40811-0.32691 0.66924-0.32691 0.36681 0 0.44015 0.0557 0.76033 0.57689 0.89822 1.4623 1.2973 3.4981 1.0381 5.2962-0.15669 1.0872-0.24035 1.2-0.94962 1.2803-0.35795 0.0405-0.62341 0.12625-0.7104 0.22948-0.3134 0.37186-2.1922 3.6687-2.1922 3.8468 0 0.0706-0.11039 0.28813-0.74192 1.4619-0.83027 1.5432-2.2689 2.2998-3.566 1.8753z"/>
  <path d="m238.96 230.55c0.47491-0.22536 1.6649-1.495 1.6689-1.7806 1e-3 -0.0869 0.0589-0.17973 0.12824-0.20632 0.0693-0.0266 0.1822-0.23594 0.25089-0.46521 0.0687-0.22927 0.20669-0.52084 0.30666-0.64794 0.1-0.12709 0.18177-0.28824 0.18177-0.3581 0-0.10888 0.37244-0.8219 0.67343-1.2893 0.0511-0.0793 0.15449-0.28069 0.22979-0.4475 0.0753-0.1668 0.29228-0.53399 0.48217-0.81597 0.18991-0.28198 0.34528-0.55926 0.34528-0.61617 0-0.0569 0.12961-0.22767 0.28803-0.37944 0.22584-0.21637 0.41546-0.29098 0.87815-0.34554 0.32456-0.0383 0.6258-0.12733 0.66942-0.19791 0.24637-0.39862 0.28951-2.9458 0.0617-3.6394-0.0261-0.0793-0.12644-0.393-0.22305-0.69707-0.0966-0.30407-0.20998-0.55285-0.25191-0.55285-0.0419 0-0.0762-0.0913-0.0762-0.2029 0-0.25172-0.56664-1.1432-0.72665-1.1432-0.0645 0-0.213 0.0774-0.32988 0.17208l-0.2125 0.1721 0.1696 0.6692c0.35561 1.4032 0.13473 3.4424-0.48338 4.4625-0.17776 0.29337-0.52455 0.94443-0.77065 1.4468s-0.59604 1.1668-0.77765 1.4765c-0.18161 0.30971-0.3302 0.61668-0.3302 0.68217 0 0.0655-0.0865 0.19738-0.1923 0.29309-0.10576 0.0957-0.19229 0.23072-0.19229 0.30001 0 0.0693-0.1298 0.33065-0.28845 0.58081-0.15864 0.25015-0.29184 0.52207-0.296 0.60426-4e-3 0.0822-0.13249 0.34414-0.28519 0.5821-0.15269 0.23797-0.36373 0.58948-0.46896 0.78113-0.26278 0.47858-0.73235 0.85339-1.0691 0.85339-0.17354 0-0.40522-0.11195-0.61759-0.29841-0.31593-0.27739-0.33986-0.33779-0.33986-0.85795 0-0.45658 0.0442-0.61212 0.24037-0.84521 0.1322-0.15712 0.24037-0.33447 0.24037-0.39412 0-0.0596 0.16225-0.29137 0.36055-0.51494 0.19831-0.22356 0.41527-0.49301 0.48213-0.59877 0.31916-0.50483 0.49864-0.77741 0.5698-0.86533 0.20521-0.25357 0.60663-0.92025 0.60663-1.0075 0-0.054 0.0433-0.0982 0.0961-0.0982 0.0529 0 0.0961-0.0596 0.0961-0.13245 0-0.0728 0.0639-0.18545 0.1419-0.25022 0.28439-0.23602 0.59506-1.0882 0.56868-1.56-0.0303-0.54267-0.28341-0.92011-0.92691-1.3825-0.47599-0.34203-0.55106-0.54414-0.34757-0.93574 0.17147-0.32999 1.6242-2.4809 1.9262-2.852 0.14971-0.18392 0.27219-0.36955 0.27219-0.41252 0-0.0823 0.34891-0.59977 0.55266-0.81958 0.21153-0.22822-0.19227-0.7198-1.1296-1.3751-0.29085-0.20334-0.89658-0.62875-1.3461-0.94534-0.4495-0.31659-1.2283-0.85971-1.7307-1.2069-0.50237-0.34723-1.2107-0.84284-1.5741-1.1014-0.75857-0.53967-1.1384-0.6456-1.6075-0.44833-0.44293 0.18625-0.67358 0.45696-1.7283 2.0285-1.5799 2.354-2.1934 3.255-2.5859 3.7978-0.21032 0.29085-0.42336 0.61945-0.47342 0.73022-0.0501 0.11078-0.15063 0.26221-0.22347 0.33652-0.0728 0.0743-0.39015 0.52132-0.70513 0.99335-0.31497 0.47203-0.65921 0.97446-0.76497 1.1165-0.37184 0.49941-1.4454 2.0421-1.7307 2.4869-0.75036 1.17-0.67592 1.1247-1.5067 0.91872-0.22303-0.0553-0.29575-0.01-0.55383 0.34648l-0.2971 0.4101 0.3615 0.2056c0.36539 0.20785 1.4935 0.99718 1.7513 1.2254 0.0769 0.0681 0.35816 0.26252 0.62496 0.43206s0.99845 0.6671 1.6259 1.1057c2.3561 1.647 2.9504 2.0538 3.3418 2.2877 0.22121 0.1322 0.57543 0.38321 0.78714 0.55779 0.47093 0.38833 0.78241 0.3794 1.0108-0.029 0.0887-0.15864 0.20136-0.31731 0.25028-0.3526 0.0489-0.0353-0.0445-0.17648-0.20772-0.31378-0.34127-0.28716-0.35877-0.60839-0.0517-0.94836 0.10536-0.11664 0.41057-0.5582 0.67825-0.98125 0.26767-0.42305 0.61136-0.92062 0.76374-1.1057 0.15238-0.18509 0.42513-0.57449 0.60612-0.86534 0.18099-0.29084 0.64381-0.96831 1.0285-1.5055 0.38468-0.53716 0.70117-1.0131 0.70331-1.0576 2e-3 -0.0445 0.18812-0.31893 0.41328-0.60978 0.4881-0.6305 0.83648-0.72986 1.2654-0.3609 0.39646 0.34102 0.41096 1.0763 0.0365 1.8512-0.35404 0.73265-0.92141 1.6582-1.2624 2.0593-0.14542 0.17107-0.2644 0.35195-0.2644 0.40195s-0.16411 0.27384-0.36469 0.4974c-0.35628 0.39711-0.45459 0.52793-0.92403 1.2296-0.24199 0.36167-0.38368 1.0171-0.23918 1.1064 0.0471 0.0291 0.0857 0.0962 0.0857 0.1491s-0.0433 0.0694-0.0961 0.0367c-0.17457-0.10789-0.095 0.0906 0.18414 0.45931 0.70949 0.93714 1.7832 1.3432 2.5675 0.97103z"/>
  <path d="m235.67 219.85c-0.84346-0.57762-1.9468-1.3308-2.4518-1.6737-1.0472-0.71097-1.102-0.76592-1.1944-1.198-0.0575-0.26878-0.0192-0.37708 0.25482-0.72111 0.17735-0.22266 0.51411-0.68607 0.74835-1.0298s0.6887-0.97109 1.0099-1.3941c0.32122-0.42305 0.65592-0.8821 0.74379-1.0201 0.30045-0.47184 0.4385-0.55951 0.74336-0.47208 0.1549 0.0444 0.91908 0.50651 1.6982 1.0268 0.77909 0.52034 1.4844 0.98933 1.5674 1.0422 1.225 0.78047 1.9155 1.3244 1.957 1.5414 0.0459 0.2401-0.11422 0.5188-0.99265 1.7276-0.15371 0.21153-0.68995 0.99614-1.1917 1.7436-0.81305 1.2113-1.0453 1.4774-1.2897 1.4774-0.038 0-0.75915-0.4726-1.6026-1.0502z"/>
  <path d="m237.83 219.72c1.2492-1.7956 2.4167-3.5454 2.4167-3.6221 0-0.1329-0.52622-0.5383-1.8268-1.4074-0.66102-0.44169-1.5603-1.0429-1.9984-1.3361-0.43809-0.29318-0.84913-0.5311-0.91341-0.52872-0.0643 2e-3 -0.38986 0.38096-0.72352 0.84129-1.2884 1.7776-2.3259 3.2846-2.3259 3.3786 0 0.054 0.44348 0.39975 0.98551 0.76839s1.2884 0.8884 1.6586 1.155c0.37016 0.26662 0.73793 0.51557 0.81725 0.55322 0.0793 0.0376 0.40382 0.25294 0.72111 0.47844s0.60545 0.41143 0.64036 0.41319c0.0349 2e-3 0.28172-0.31048 0.54845-0.69387z" fill="#fff"/>
  <path d="m310.97 224.91c-0.29616-0.12643-0.29205-0.11635-0.77767-1.907-0.12421-0.45801-0.27267-0.92028-0.32993-1.0273-0.18179-0.33967-0.12049-0.58461 0.19418-0.77597 0.31224-0.18989 0.82856-0.36788 3.2111-1.107 0.79322-0.24606 1.7668-0.55353 2.1635-0.68327 0.39671-0.12975 1.0024-0.31654 1.3461-0.4151 0.34362-0.0986 1.4036-0.4287 2.3554-0.73365 0.95186-0.30494 1.9254-0.61187 2.1633-0.68206 0.238-0.0702 0.93027-0.28072 1.5384-0.46783 1.1452-0.35234 1.8354-0.42938 1.9875-0.22183 0.0485 0.0661 0.16831 0.35815 0.26639 0.649 0.098 0.29085 0.21885 0.581 0.26845 0.64479 0.0496 0.0638 0.0597 0.16526 0.0227 0.2255-0.0369 0.0602-0.0227 0.20275 0.0327 0.31669 0.0551 0.11394 0.17295 0.46677 0.2619 0.78405 0.089 0.31729 0.22212 0.74002 0.29583 0.93939 0.0736 0.19938 0.13396 0.50776 0.13396 0.68529 0 0.29423-0.0448 0.34442-0.50476 0.56737-0.27763 0.13452-1.024 0.3604-1.6585 0.50196-0.63461 0.14156-1.5216 0.33881-1.971 0.43834-0.44952 0.0995-1.2716 0.29437-1.8268 0.43298-0.55525 0.13861-1.572 0.37499-2.2595 0.5253-1.6853 0.36846-4.885 1.125-5.4889 1.2979-0.58878 0.1685-1.0489 0.17251-1.4239 0.0124z"/>
  <path d="m313.94 224.1c1.0048-0.23702 1.9782-0.46541 2.1633-0.50754 0.6447-0.14673 2.166-0.49952 2.5479-0.59086 0.21153-0.0506 0.55766-0.12681 0.76918-0.16939 0.21153-0.0426 0.81726-0.18741 1.3461-0.32185 0.5288-0.13445 1.7403-0.42754 2.6922-0.65132 1.9148-0.45018 2.3002-0.60607 2.1574-0.87281-0.0496-0.0928-0.0903-0.27716-0.0903-0.40972s-0.039-0.26507-0.0865-0.29447-0.13681-0.28074-0.19839-0.55853c-0.2123-0.95874-0.34051-1.3466-0.46028-1.3928-0.0661-0.0255-0.12019-0.1091-0.12019-0.18589 0-0.0768 0.0433-0.11287 0.0961-0.0802 0.15211 0.094 0.1118-0.10772-0.048-0.24037-0.0793-0.0658-0.1442-0.23916-0.1442-0.38516 0-0.31931-0.31941-0.42193-0.74039-0.23789-0.14805 0.0647-0.50714 0.18777-0.79801 0.27346-0.4634 0.13653-1.6715 0.51001-3.6055 1.1146-0.31728 0.0992-1.161 0.36057-1.8749 0.58084-0.7139 0.22026-1.6225 0.50356-2.0191 0.62955s-1.5648 0.4945-2.596 0.8189c-2.075 0.65277-2.6921 0.86514-2.6921 0.92637 0 0.0739 0.30383 1.0302 0.45218 1.4232 0.0799 0.21153 0.20691 0.62256 0.28236 0.91341 0.0754 0.29084 0.20935 0.58322 0.29757 0.64972 0.19329 0.14571 0.28917 0.13021 2.6696-0.43134z"/>
  <path d="m321.58 216.28c-0.16688-0.0652-0.30902-0.26233-0.46504-0.64497-0.12356-0.30309-0.26417-0.62619-0.31247-0.71801-0.0483-0.0918-0.0878-0.22894-0.0878-0.30469 0-0.0758-0.0629-0.26023-0.13979-0.40994-0.31751-0.61824-0.72554-1.5447-0.72554-1.6473 0-0.0605-0.0845-0.29506-0.1878-0.52122s-0.32373-0.71406-0.48988-1.0842c-0.4527-1.0087-1.0567-2.2886-1.1571-2.4518-0.15411-0.25065-0.31215-0.62223-0.29623-0.6965 8e-3 -0.0393-0.136-0.2698-0.32098-0.51214-0.18498-0.24233-0.33633-0.49549-0.33633-0.56256 0-0.0671-0.17949-0.39907-0.39886-0.73778s-0.45963-0.74563-0.53391-0.90428c-0.0743-0.15864-0.28119-0.52641-0.45982-0.81725-0.17861-0.29085-0.44142-0.73182-0.58402-0.97993s-0.31866-0.4739-0.39125-0.50176c-0.0726-0.0279-0.13199-0.11873-0.13199-0.20194 0-0.0832-0.0441-0.20356-0.0979-0.26743-0.32226-0.38221-0.66802-1.0163-0.66952-1.2279-2e-3 -0.26639 0.25856-0.54439 0.94532-1.009 0.58583-0.39633 1.0015-0.61916 1.1552-0.61933 0.15071-1.7e-4 0.87826 0.7639 0.87826 0.92235 0 0.0579 0.0826 0.18006 0.18351 0.2714 0.10094 0.0913 0.23774 0.30356 0.30401 0.4716 0.0663 0.16804 0.19535 0.39207 0.28683 0.49783 0.0915 0.10576 0.28371 0.41944 0.42719 0.69707 0.14346 0.27763 0.29956 0.50478 0.34691 0.50478 0.0473 0 0.0873 0.0541 0.0887 0.12018 2e-3 0.0661 0.13127 0.29014 0.28845 0.49787 0.15717 0.20773 0.28577 0.41723 0.28577 0.46557 0 0.0483 0.0865 0.19791 0.19229 0.33236 0.10576 0.13446 0.1923 0.32184 0.1923 0.41642 0 0.0946 0.10069 0.29425 0.22373 0.44373 0.12306 0.14948 0.32393 0.48207 0.44637 0.73908 0.12244 0.257 0.37086 0.66147 0.55203 0.89881 0.18116 0.23734 0.30932 0.4516 0.28479 0.47613-0.0243 0.0245 0.23199 0.59356 0.57008 1.2645 0.33809 0.67096 0.61482 1.2898 0.61492 1.3752 1.1e-4 0.0854 0.0853 0.2635 0.18936 0.39575 0.10405 0.13225 0.16805 0.2616 0.14219 0.28743-0.0259 0.0258 0.0789 0.30204 0.23284 0.6138 0.1539 0.31176 0.35075 0.7775 0.43744 1.035 0.0867 0.25749 0.20898 0.56036 0.27172 0.67304 0.0627 0.11268 0.11623 0.22651 0.11897 0.25295 0.0116 0.11133 0.45849 1.3138 0.55378 1.4896 0.0571 0.10538 0.13676 0.33773 0.17707 0.51633 0.1 0.44328-0.18277 0.69255-1.088 0.95927-0.93049 0.27416-1.2291 0.31393-1.5159 0.20187z"/>
  <path d="m322.88 215.7c0.65571-0.20125 0.81727-0.30453 0.81727-0.52257 0-0.27274-0.25716-0.90362-0.4663-1.1439-0.11819-0.13581-0.128-0.19304-0.0385-0.2244 0.0821-0.0287 0.0253-0.1746-0.17886-0.45874-0.16456-0.22916-0.27272-0.45947-0.24038-0.5118 0.0716-0.11592-0.30363-1.1534-0.5017-1.387-0.11697-0.13797-0.11882-0.16825-0.01-0.16825 0.0777 0 0.0443-0.0619-0.0813-0.14968-0.12166-0.0852-0.21368-0.25083-0.21368-0.38459 0-0.12921-0.0385-0.23492-0.0855-0.23492s-0.11386-0.15143-0.14857-0.33652c-0.0348-0.18508-0.10247-0.33651-0.15058-0.33651-0.048 0-0.11592-0.15204-0.15079-0.33787-0.0348-0.18583-0.11486-0.36972-0.17781-0.40863-0.12895-0.0798-0.44056-0.71008-0.44056-0.8912 0-0.13793-0.34139-0.72817-0.58207-1.0064-0.0915-0.10576-0.19674-0.33584-0.23387-0.51127-0.0371-0.17544-0.12835-0.34232-0.20269-0.37085-0.0743-0.0285-0.13515-0.11447-0.13515-0.19099 0-0.14912-0.46188-1.0204-0.83192-1.5692-0.12414-0.18414-0.22571-0.36889-0.22571-0.41055 0-0.0417-0.2596-0.47045-0.57688-0.95288-0.31729-0.48242-0.57689-0.93585-0.57689-1.0076 0-0.0718-0.0427-0.13051-0.095-0.13051-0.10634 0-0.57809-0.70833-0.57809-0.86801 0-0.0565-0.098-0.19793-0.21768-0.31439-0.11972-0.11646-0.28147-0.33636-0.35946-0.48866-0.078-0.15231-0.24044-0.32188-0.36101-0.37682-0.18171-0.0828-0.26419-0.0585-0.48184 0.142-0.14443 0.13303-0.47344 0.39926-0.73113 0.59162-0.36228 0.27042-0.43314 0.36332-0.31248 0.40962 0.0858 0.0329 0.15605 0.11236 0.15605 0.1765 0 0.0641 0.1298 0.26201 0.28844 0.4397 0.15865 0.17769 0.28851 0.41264 0.28858 0.52209 7e-5 0.10946 0.17308 0.39372 0.38446 0.63169 0.21138 0.23796 0.38439 0.50273 0.38446 0.58836 7e-5 0.0856 0.16621 0.36687 0.36918 0.62496 0.203 0.2581 0.43388 0.59906 0.51312 0.75771 0.19439 0.38926 0.47162 0.86705 0.82795 1.4269 0.16292 0.25601 0.27594 0.51834 0.25115 0.58296-0.0248 0.0646 0.0429 0.19718 0.15059 0.29458 0.10763 0.0974 0.19569 0.25437 0.19569 0.34881 0 0.0945 0.0439 0.19885 0.0975 0.232 0.1608 0.0994 0.51693 0.84577 0.53522 1.1218 0.0181 0.27235 0.37628 0.8484 0.52758 0.8484 0.0493 0 0.0896 0.12671 0.0896 0.28158 0 0.15486 0.0541 0.34072 0.12018 0.41301 0.2427 0.26543 0.45671 0.77158 0.45671 1.0802 0 0.17433 0.0681 0.37344 0.15125 0.44248 0.20495 0.1701 0.52178 0.80643 0.52178 1.048 0 0.10787 0.0385 0.19612 0.0855 0.19612s0.11303 0.14705 0.14675 0.32677c0.0338 0.17972 0.1453 0.43352 0.24792 0.56401s0.16071 0.26313 0.1291 0.29476c-0.0677 0.0677 0.21875 0.70297 0.35482 0.78709 0.0517 0.0318 0.0936 0.20354 0.0936 0.38162 0 0.23024 0.0485 0.33445 0.16825 0.36066 0.15728 0.0345 0.3 4e-3 1.0336-0.22123z"/>
  <path d="m305.56 204.39c-0.22956-0.25004-0.41738-0.52623-0.41738-0.61378 0-0.19906 0.52049-0.67285 1.5365-1.3986 1.4521-1.0373 2.4494-1.7429 3.0786-2.1781 1.2562-0.86892 3.321-2.3617 3.4646-2.5049 0.25842-0.25769 0.70699-0.44446 1.0689-0.44507 0.35903-5.8e-4 0.46021 0.10083 0.92793 0.93023 0.21095 0.37408 0.14352 0.43749-2.1924 2.0618-0.3966 0.2758-0.93744 0.68007-1.2018 0.89839-0.2644 0.21832-0.72812 0.5679-1.0305 0.77684-0.96259 0.66517-1.1754 0.81999-1.4226 1.035-0.13292 0.11561-0.43578 0.33858-0.67303 0.49547-0.23725 0.1569-0.6771 0.46789-0.97743 0.6911-1.1865 0.8818-1.5445 0.92348-2.1614 0.25162z"/>
  <path d="m306.9 204.13c0.6997-0.46197 1.1863-0.80412 2.158-1.5174 0.46309-0.3399 1.3428-0.98266 1.9549-1.4284 0.6121-0.44569 1.4086-1.0267 1.7699-1.2911 0.36135-0.26441 0.7238-0.52401 0.80543-0.57689 0.0816-0.0529 0.35484-0.25441 0.60714-0.44783 0.25228-0.19342 0.51381-0.37004 0.58117-0.39249 0.13525-0.0451-0.327-0.72195-0.55201-0.8083-0.11792-0.0452-0.40665 0.13753-1.8121 1.1472-0.31032 0.22292-0.64726 0.45339-0.74875 0.51213-0.10148 0.0587-0.28025 0.19178-0.39725 0.29562-0.117 0.10385-0.45069 0.34817-0.74154 0.54294-0.91256 0.61109-0.99907 0.67286-1.4422 1.0296-0.23796 0.19158-0.49756 0.37219-0.57689 0.40136-0.0793 0.0292-0.51199 0.32905-0.96148 0.66642s-0.92542 0.6867-1.0576 0.77628c-0.1322 0.0896-0.3828 0.28409-0.55689 0.43222l-0.3165 0.2693 0.3295 0.3597c0.18122 0.19784 0.3582 0.35972 0.39327 0.35972 0.0351 0 0.28882-0.1486 0.56391-0.33022z"/>
  <path d="m311.03 197.35c-0.0926-0.10198-0.21153-0.24344-0.26441-0.31437-0.0529-0.0709-0.24758-0.30567-0.43267-0.52163-0.18508-0.21597-0.46619-0.56125-0.62467-0.7673s-0.4643-0.54769-0.67961-0.75922c-0.2153-0.21153-0.57641-0.62256-0.80247-0.91341-0.80137-1.031-2.7726-3.0889-4.6783-4.884-0.57804-0.54448-1.2241-1.1555-1.4356-1.3577-0.36589-0.34986-1.7-1.4326-2.7981-2.2709-0.85477-0.65253-1.2882-1.0794-1.2882-1.2688 0-0.22253 0.87688-1.4835 1.2185-1.7522 0.13732-0.10801 0.35697-0.19638 0.48811-0.19638 0.22789 0 1.1671 0.59682 1.5985 1.0157 0.11238 0.10915 0.72353 0.59839 1.3581 1.0872 1.1056 0.85169 2.8947 2.4674 3.7361 3.3741 0.44803 0.4828 0.7428 0.77524 1.8933 1.8783 0.44123 0.42305 0.94397 0.95186 1.1172 1.1751 0.17322 0.22327 0.39187 0.48748 0.48589 0.58713 0.24348 0.25807 1.1285 1.2536 1.4677 1.651 0.15799 0.18508 0.48249 0.55061 0.72112 0.81229s0.43387 0.51557 0.43387 0.5642c0 0.0486 0.11899 0.23447 0.26441 0.41299s0.38073 0.46835 0.5229 0.64407c0.14216 0.17572 0.24282 0.40314 0.22368 0.50537-0.0192 0.10224-0.0381 0.21438-0.0421 0.24922-4e-3 0.0348-0.29542 0.28971-0.6475 0.5664-0.83666 0.6575-1.5152 0.83599-1.8357 0.48286z"/>
  <path d="m313.12 196.21c0.0851-0.0602-0.33673-0.73408-0.74068-1.1834-0.22488-0.25012-0.40887-0.52412-0.40887-0.6089 0-0.0848-0.0402-0.15413-0.0893-0.15413-0.13665 0-0.69849-0.57667-1.007-1.0336-0.15175-0.22475-0.3133-0.40863-0.35899-0.40863-0.0457 0-0.0831-0.0433-0.0831-0.0963 0-0.0825-0.72298-0.86037-2.0634-2.22-0.18718-0.18986-0.34033-0.39538-0.34033-0.45671 0-0.0613-0.0599-0.1115-0.13316-0.1115-0.0732 0-0.20418-0.10837-0.29096-0.24083-0.25531-0.38965-1.248-1.333-1.3786-1.3101-0.0661 0.0116-0.12019-0.0505-0.12019-0.13781 0-0.16471-0.87865-1.0995-1.0335-1.0995-0.0483 0-0.14532-0.10745-0.21561-0.23877-0.0703-0.13133-0.20754-0.26409-0.30502-0.29503-0.0975-0.0309-0.41988-0.29126-0.71643-0.57848-0.29656-0.28723-0.59816-0.52223-0.67023-0.52223-0.0721 0-0.19658-0.12674-0.27668-0.28163-0.0801-0.1549-0.23339-0.30948-0.34063-0.34352-0.10725-0.034-0.41614-0.27392-0.68643-0.53307-0.27028-0.25914-0.58322-0.50013-0.69542-0.53553s-0.29054-0.14389-0.39629-0.24109c-0.10577-0.0972-0.38645-0.32746-0.62374-0.51167-0.52123-0.40464-0.61361-0.36802-1.2243 0.48532l-0.4058 0.567 0.511 0.4807c0.28104 0.26441 0.74172 0.65381 1.0237 0.86533 0.28202 0.21153 0.62409 0.49673 0.76015 0.63378 0.13605 0.13705 0.61514 0.54415 1.0646 0.90466 0.4495 0.36051 0.82963 0.70508 0.84475 0.76571 0.0151 0.0606 0.14648 0.18053 0.29191 0.26644 0.28492 0.16831 0.87932 0.6842 1.267 1.0997 0.1322 0.14168 0.30527 0.31736 0.3846 0.39042 0.92811 0.85476 2.7408 2.7453 3.0106 3.1399 0.0958 0.14015 0.21482 0.22975 0.26441 0.1991 0.0496-0.0307 0.0902-7e-3 0.0902 0.0526s0.21101 0.33254 0.4689 0.6066c0.87428 0.92907 1.0695 1.1516 1.0695 1.2194 0 0.0372 0.11898 0.19502 0.26441 0.35073 0.14542 0.15571 0.41584 0.47028 0.60092 0.69906 0.18509 0.22878 0.41224 0.48518 0.50478 0.56979 0.0925 0.0846 0.16825 0.20974 0.16825 0.27809 0 0.0683 0.13555 0.20669 0.30121 0.30743l0.3012 0.1832 0.6843-0.4458c0.37638-0.24519 0.70405-0.45975 0.72817-0.47682z"/>
  <path d="m237.8 191.42c-0.31189-0.13685-0.62895-0.31068-0.70457-0.3863-0.0756-0.0756-0.23145-0.18746-0.34631-0.24855-0.11486-0.0611-0.4468-0.28796-0.73765-0.50415s-0.60041-0.43634-0.68792-0.48922c-0.0875-0.0529-0.83761-0.57208-1.6669-1.1538-0.82929-0.5817-1.6576-1.1485-1.8407-1.2595-0.48253-0.29257-0.54714-0.38092-0.47853-0.65432 0.039-0.15561 0.24685-0.36381 0.56839-0.5695 0.27876-0.17832 0.62915-0.47132 0.77865-0.65112 0.3202-0.3851 1.2459-1.4353 1.9549-2.2178 0.27652-0.30518 0.65703-0.7696 0.84558-1.032 0.18855-0.26245 0.37871-0.49097 0.42256-0.50781 0.0438-0.0168 0.47652-0.52818 0.96147-1.1363 0.86844-1.089 1.6424-2.3281 1.6424-2.6294 0-0.18835 0.4755-0.44733 0.82132-0.44733 0.13968 0 0.36898 0.0892 0.50955 0.19833 0.57982 0.44994 2.8304 2.0131 2.8984 2.0131 0.0755 0 1.5816 1.0144 2.4723 1.6651 0.27505 0.20094 0.52658 0.44882 0.55896 0.55084 0.0564 0.1776-0.211 0.76468-0.34825 0.76468-0.0358 0-0.0897 0.0973-0.11996 0.21633-0.10333 0.40673-0.56903 0.80554-1.026 0.87861-0.45783 0.0732-0.67059-0.0677-0.67059-0.44411 0-0.52147-0.73803-1.3707-1.7307-1.9915-0.29085-0.18189-0.60621-0.40895-0.70081-0.50459-0.0946-0.0956-0.22836-0.17389-0.29725-0.17389-0.12736 0-0.87825 0.76845-1.7354 1.7759-0.41327 0.48577-0.45421 0.57084-0.31985 0.66454 0.98769 0.68882 2.3959 1.5974 3.0533 1.97 1.2075 0.68444 1.2988 1.1989 0.23457 1.3218-0.64577 0.0746-1.6222-0.16761-2.5798-0.63988-0.79316-0.39114-0.85608-0.42671-1.5708-0.88792-0.22369-0.14434-0.44435-0.26244-0.49035-0.26244-0.0886 0-0.83861 0.84946-1.3105 1.4842-0.67707 0.91076-0.92034 1.3353-0.86504 1.5095 0.0313 0.0985 0.0898 0.17919 0.13006 0.17919 0.0686 0 0.23547 0.1023 1.525 0.9348 0.94243 0.6084 1.5288 0.8106 2.5519 0.87997 0.97925 0.0664 1.1205 0.13439 1.1236 0.54085 1e-3 0.10807-0.15645 0.31846-0.35908 0.48034-1.3774 1.1004-1.5652 1.1585-2.466 0.76329z"/>
  <path d="m238.98 191.12c0.12183-0.0925 0.40104-0.32997 0.62048-0.52762 0.21943-0.19765 0.43142-0.3599 0.47108-0.36055 0.0397-6.9e-4 0.0721-0.0445 0.0721-0.0973 0-0.0551-0.29781-0.097-0.69707-0.0982-1.1291-3e-3 -1.9697-0.35991-3.9351-1.6694-0.87633-0.58391-0.95747-0.77741-0.57604-1.3736 0.29997-0.46891 1.3479-1.8301 1.669-2.168 0.12214-0.12851 0.29719-0.32757 0.38902-0.44235 0.20078-0.25096 0.68514-0.22579 1.1045 0.0574 0.14679 0.0991 0.46159 0.31105 0.69956 0.47097 0.57504 0.38643 1.2652 0.72423 1.997 0.9775 0.96497 0.33394 1.9775 0.23585 1.2814-0.12414-0.79481-0.41101-3.3675-2.0871-3.603-2.3473-0.38976-0.43068-0.21948-0.71997 1.5176-2.5783 0.75291-0.80544 0.89905-0.80587 1.9515-6e-3 0.43392 0.3299 0.94572 0.70799 1.1373 0.84019 0.81256 0.56068 0.85494 0.61742 0.90814 1.2159 0.071 0.79832 0.28895 0.77249 0.88375-0.10472 0.24897-0.36717 0.43077-0.70299 0.40402-0.74627-0.0538-0.087-0.22852-0.20689-3.2095-2.2019-1.1373-0.76116-2.2297-1.508-2.4275-1.6596-0.33864-0.25957-0.37293-0.2669-0.58821-0.12585-0.13126 0.086-0.22869 0.24431-0.22883 0.37178-2.4e-4 0.23114-0.6298 1.2606-1.0765 1.7604-0.14181 0.15864-0.31992 0.38067-0.3958 0.49339-0.28937 0.42985-2.4668 2.9744-3.9598 4.6275-0.19831 0.21956-0.36056 0.43709-0.36056 0.48339 0 0.0813-0.93983 0.81677-1.1801 0.92358-0.0826 0.0367-0.0648 0.0893 0.0594 0.1755 0.0975 0.0677 0.51997 0.37189 0.93879 0.67596s0.79332 0.55304 0.83224 0.55327c0.0389 2.2e-4 0.2871 0.16324 0.55151 0.36224 0.26441 0.19901 0.89177 0.6363 1.3942 0.97175 0.50237 0.33545 1.0017 0.69071 1.1097 0.78946 0.28231 0.25822 1.6943 1.049 1.873 1.049 0.0831 0 0.25072-0.0757 0.37255-0.16825z"/>
  <path d="m292.02 190.62c-0.10576-0.0334-0.37829-0.1598-0.60561-0.28081-0.7719-0.4109-0.89398-0.14318 2.0478-4.4905 0.8461-1.2503 1.5999-2.3674 1.6752-2.4825 1.6341-2.4976 1.6891-2.5636 2.1901-2.6308 0.35729-0.0479 0.45913-0.0128 0.89889 0.31001 0.46133 0.33865 0.49227 0.38668 0.44333 0.68823-0.0289 0.1783-0.18542 0.49188-0.34775 0.69684-0.16234 0.20497-0.35038 0.47393-0.41789 0.5977-0.0675 0.12377-0.42391 0.67205-0.79203 1.2184-0.93379 1.3859-1.1852 1.773-1.2595 1.9391-0.0355 0.0793-0.19977 0.31729-0.36509 0.52882-0.16532 0.21152-0.54141 0.75236-0.83576 1.2018-1.8123 2.7675-1.684 2.6091-2.1991 2.7149-0.13221 0.0272-0.32691 0.022-0.43267-0.0114z"/>
  <path d="m292.76 189.88c0.0587-0.12894 0.13761-0.23444 0.17525-0.23444 0.0376 0 0.21457-0.24235 0.39319-0.53857 0.17862-0.29621 0.46498-0.71806 0.63634-0.93744s0.36523-0.50704 0.43082-0.63925c0.0656-0.1322 0.30396-0.51352 0.52972-0.84737s0.41048-0.62398 0.41048-0.64473c0-0.0617 0.48599-0.75893 0.56695-0.81334 0.0411-0.0276 0.20071-0.26563 0.35477-0.52896 0.15407-0.26333 0.32339-0.54667 0.37627-0.62963 0.0529-0.083 0.18268-0.29436 0.28845-0.46977 0.10576-0.1754 0.45436-0.67087 0.77466-1.101l0.5824-0.7821-0.2459-0.2274c-0.41897-0.38748-0.64946-0.45369-0.87353-0.25091-0.10768 0.0975-0.29036 0.33147-0.40596 0.52003-0.11559 0.18857-0.28893 0.42852-0.3852 0.53323-0.0963 0.10471-0.19969 0.28859-0.22982 0.40863-0.0301 0.12003-0.0861 0.21824-0.12431 0.21824-0.0815 0-0.6788 0.90102-0.6788 1.0239 0 0.046-0.0764 0.13135-0.16982 0.18968-0.0934 0.0583-0.29584 0.33915-0.44986 0.62405s-0.40806 0.67865-0.56454 0.87501c-0.15647 0.19636-0.41915 0.56915-0.58373 0.82843-0.68568 1.0802-1.3067 2.0054-1.5276 2.2759-0.12961 0.15865-0.2661 0.3858-0.30331 0.50478-0.0372 0.11898-0.1034 0.21633-0.14706 0.21633-0.0436 0-0.10485 0.0664-0.13597 0.14747-0.039 0.10182 0.0808 0.23462 0.38741 0.42903 0.49497 0.31391 0.72452 0.27648 0.91873-0.14976z"/>
  <path d="m258.75 183.91c-0.10577-0.0224-0.28417-0.0601-0.39646-0.0838-0.4314-0.0911-0.45599-0.3162-0.66127-6.0548-0.0303-0.8461-0.0745-1.8629-0.0982-2.2595-0.0501-0.83746-0.21425-5.1518-0.25968-6.8265-8e-3 -0.28663 0.0764-0.40872 0.39335-0.57041 0.30916-0.15771 0.48828-0.17996 1.0619-0.13187 0.51079 0.0428 0.71279 0.10042 0.77773 0.22176 0.0817 0.15274 0.14362 1.395 0.23944 4.8072 0.0215 0.76678 0.083 2.1946 0.13661 3.1729 0.23386 4.2685 0.31641 7.1872 0.20896 7.388-0.15765 0.29456-0.83423 0.45716-1.4024 0.33701z"/>
  <path d="m259.65 183.44c0.22242-0.15579 0.22308-0.16265 0.15993-1.6586-0.0349-0.82616-0.0998-2.3674-0.14421-3.4251-0.0444-1.0576-0.10463-2.4422-0.13375-3.0767-0.0291-0.63457-0.0765-1.8677-0.10529-2.7402-0.0288-0.87255-0.0786-2.1173-0.11073-2.7661-0.0655-1.3232-0.0916-1.3682-0.7938-1.3682-0.49301 0-0.68821 0.0778-0.62279 0.24832 0.0324 0.0846-0.01 0.13627-0.11067 0.13627-0.13789 0-0.15256 0.0615-0.0954 0.39986 0.0371 0.21993 0.0796 0.79321 0.0944 1.274 0.0599 1.9537 0.16106 3.6788 0.23162 3.9508 0.0412 0.15865 0.0563 0.37498 0.0337 0.48074-0.0505 0.23619-0.0379 1.302 0.0312 2.6441 0.0286 0.55525 0.0693 1.399 0.0905 1.8749 0.0212 0.47594 0.0665 1.2547 0.10076 1.7307 0.0343 0.47593 0.056 1.0708 0.0483 1.322-0.0108 0.35215 0.0197 0.4567 0.13322 0.4567 0.081 0 0.14726 0.0433 0.14726 0.0961 0 0.0529-0.0341 0.0962-0.0757 0.0962s-0.082 0.0839-0.0897 0.18645c-9e-3 0.12125 0.0593 0.20072 0.19587 0.22728 0.46076 0.0896 0.80283 0.0595 1.0154-0.0894z"/>
  <path d="m273.59 181.88c-0.24892-0.0884-0.49396-0.20407-0.54454-0.25695-0.18826-0.19682-0.14835-0.70801 0.13513-1.7307 0.0733-0.2644 0.28841-1.1297 0.47804-1.923 0.18964-0.79323 0.65844-2.716 1.0418-4.2728 0.68204-2.7698 0.70335-2.8341 0.9921-2.9954 0.2596-0.14502 0.36316-0.15061 0.86094-0.0465 0.96985 0.20291 1.2032 0.4333 0.99303 0.98023-0.11471 0.29847-0.7628 2.933-1.0497 4.2672-0.0967 0.44949-0.21789 0.94705-0.26941 1.1057-0.0825 0.25419-0.14606 0.51142-0.36801 1.4903-0.03 0.1322-0.0899 0.3918-0.13323 0.57689-0.0433 0.18508-0.17081 0.74151-0.28337 1.2365-0.11255 0.495-0.26446 1.0432-0.33757 1.2182-0.22862 0.54717-0.67229 0.64972-1.5152 0.35022z"/>
  <path d="m274.65 181.54c0.0592-0.0713 0.15138-0.3634 0.20483-0.649 0.0534-0.2856 0.17991-0.82214 0.28105-1.1923 0.23705-0.86759 0.38664-1.5225 0.47588-2.0834 0.0393-0.2469 0.12554-0.51411 0.19167-0.59379 0.0661-0.0797 0.10854-0.20217 0.0942-0.2722-0.0274-0.13426 0.22526-1.3346 0.45185-2.1464 0.11487-0.41161 0.40778-1.6318 0.70989-2.9571 0.0961-0.42155 0.0521-0.4651-0.56464-0.55869-0.62355-0.0946-0.82942 0.068-0.90552 0.71553-0.0331 0.28142-0.12543 0.69673-0.20523 0.92291s-0.1451 0.55468-0.1451 0.73c0 0.17531-0.0414 0.34432-0.0919 0.37558-0.0506 0.0312-0.0674 0.12089-0.0373 0.19919 0.03 0.0783 0.0125 0.1959-0.039 0.26133-0.0977 0.12407-0.23926 0.5773-0.26871 0.86011-9e-3 0.0904-0.0662 0.28505-0.12615 0.43267-0.06 0.14762-0.12561 0.51879-0.14586 0.82481-0.0219 0.33071-0.0995 0.62565-0.19128 0.72709-0.0849 0.0939-0.17174 0.34105-0.19286 0.54929-0.0211 0.20824-0.0704 0.4562-0.10948 0.55102-0.0391 0.0948-0.0456 0.19786-0.0145 0.22897 0.0311 0.0311 6e-3 0.14823-0.0566 0.26026-0.0623 0.11203-0.10335 0.23808-0.0913 0.28011 0.012 0.042-0.0518 0.32326-0.14178 0.62496-0.17648 0.59156-0.22133 0.75758-0.26506 0.98121-0.0155 0.0793-0.0599 0.21851-0.0987 0.30931-0.11247 0.26338-0.0239 0.37877 0.43282 0.56395 0.52223 0.21174 0.70854 0.22373 0.84886 0.0547z"/>
  <path d="m277.07 181.92c0-0.0762 0.0433-0.16529 0.0961-0.19798 0.0529-0.0327 0.0962 0.0297 0.0962 0.13855 0 0.10889-0.0433 0.19797-0.0962 0.19797s-0.0961-0.0623-0.0961-0.13854z"/>
  <path d="m294.07 181.74c-0.0699-0.0679-0.34096-0.25177-0.60241-0.40862-0.26144-0.15686-0.65188-0.39337-0.86763-0.52557-0.52705-0.32295-1.4272-0.86948-1.8211-1.1057-0.71721-0.4301-2.4316-1.3548-2.7477-1.4821-0.18581-0.0748-0.446-0.20788-0.57821-0.29572-0.1322-0.0879-0.62977-0.34608-1.1057-0.57386s-1.1186-0.53819-1.428-0.68979c-0.30949-0.15161-0.60026-0.27565-0.64615-0.27565-0.0459 0-0.31186-0.10059-0.59105-0.22354-1.2052-0.53074-3.3957-1.3753-4.4497-1.7156-1.3663-0.44115-1.4903-0.51517-1.4903-0.88996 0-0.5345 0.30421-1.7056 0.49177-1.8932 0.40162-0.40162 0.93013-0.32577 2.8346 0.40681 0.5339 0.20538 1.0444 0.37341 1.1344 0.37341s0.34546 0.0887 0.56765 0.19707c0.22219 0.1084 0.68521 0.3078 1.0289 0.44313 0.76999 0.30315 1.5987 0.66853 1.9378 0.85442 0.14036 0.0769 0.30575 0.13989 0.36753 0.13989 0.1037 0 2.3669 1.0573 2.6944 1.2588 0.0793 0.0488 0.25238 0.13693 0.38459 0.19587 0.44118 0.19667 1.1958 0.58188 1.7787 0.90796 0.31729 0.17749 0.81486 0.45504 1.1057 0.61678 0.29085 0.16174 0.85332 0.49335 1.2499 0.73692 0.39661 0.24356 0.91581 0.55029 1.1538 0.68161 0.23797 0.13132 0.47593 0.28854 0.52882 0.34938 0.0529 0.0608 0.38819 0.29904 0.74514 0.52933 0.43589 0.28122 0.649 0.48022 0.649 0.60603 0 0.21021-0.15748 0.5382-0.35163 0.73235-0.0709 0.0709-0.24186 0.3216-0.37983 0.55703-0.13798 0.23543-0.32986 0.47034-0.42642 0.52201-0.25239 0.13508-1.0173 0.11576-1.1668-0.0295z"/>
  <path d="m295.13 181.21c0.14135-0.14764 0.33149-0.39642 0.42251-0.55285 0.091-0.15642 0.22031-0.35965 0.28729-0.45162 0.10393-0.14269 0.0867-0.19205-0.11743-0.33652-0.13156-0.0931-0.31015-0.17398-0.39685-0.1797-0.0867-6e-3 -0.25978-0.10674-0.3846-0.22449s-0.35675-0.28125-0.51539-0.36333c-0.15864-0.0821-0.44611-0.27311-0.6388-0.42451s-0.40127-0.27527-0.46351-0.27527c-0.0622 0-0.386-0.1947-0.71948-0.43266-0.33348-0.23797-0.6441-0.43363-0.69027-0.43481-0.0462-1e-3 -0.1921-0.0867-0.3243-0.19016-0.13221-0.10341-0.31079-0.18898-0.39686-0.19015-0.0861-1e-3 -0.20685-0.0628-0.26841-0.137-0.0616-0.0742-0.33727-0.24706-0.6127-0.38419-0.27542-0.13714-0.56567-0.29004-0.64499-0.33979-0.26316-0.16504-0.79687-0.39109-0.9234-0.39109-0.0686 0-0.16146-0.0657-0.20641-0.14604-0.0449-0.0803-0.16608-0.16231-0.26918-0.18218-0.1031-0.0199-0.40379-0.15251-0.6682-0.29474-0.2644-0.14223-1.0865-0.5181-1.8268-0.83527-0.74034-0.31716-1.3872-0.61637-1.4374-0.66491-0.0502-0.0485-0.14967-0.0883-0.22097-0.0883s-0.30247-0.0835-0.51371-0.18556c-0.21123-0.10206-0.52283-0.2155-0.69243-0.2521-0.16959-0.0366-0.45979-0.14308-0.64487-0.23661-0.27254-0.13774-1.6828-0.64206-3.1767-1.136-0.13847-0.0458-0.33032-0.0423-0.44323 8e-3 -0.23451 0.10464-0.46075 0.7132-0.28774 0.77398 0.0725 0.0255 0.0527 0.10303-0.0585 0.22845-0.19654 0.2218-0.21953 0.54478-0.0481 0.67546 0.10604 0.0808 0.93056 0.39292 2.2835 0.86436 0.23797 0.0829 0.6611 0.25318 0.94029 0.37836s0.55092 0.22759 0.60382 0.22759c0.0991 0 0.92613 0.33477 1.773 0.71764 0.26441 0.11954 0.58891 0.24973 0.72111 0.28932 0.1322 0.0396 0.67303 0.27743 1.2018 0.52857 0.52881 0.25113 1.1756 0.55724 1.4374 0.68025 0.26174 0.123 0.78094 0.3936 1.1538 0.60132 0.97705 0.54434 2.1631 1.1886 2.5528 1.3866 0.18509 0.0941 0.35815 0.19715 0.3846 0.2291 0.0264 0.032 0.31849 0.20248 0.64899 0.37895 0.33051 0.17648 0.60093 0.35586 0.60093 0.39862 0 0.0428 0.0541 0.0783 0.12018 0.079 0.0661 6.7e-4 0.50959 0.25677 0.98552 0.56912s0.94438 0.5714 1.041 0.57567c0.0966 4e-3 0.29131-0.11303 0.43266-0.26068z"/>
  <path d="m278.12 178.26c0-0.0793 0.0419-0.14422 0.0931-0.14422s0.0682 0.0649 0.0378 0.14422c-0.0304 0.0793-0.0723 0.14422-0.0931 0.14422s-0.0378-0.0649-0.0378-0.14422z"/>
  <path d="m272.93 172.63c-0.46783-0.11471-2.0743-0.47517-2.596-0.5825-0.80303-0.1652-3.6973-0.64373-4.2786-0.70741-0.31729-0.0348-0.74996-0.0837-0.96148-0.10876-0.21153-0.025-1.0769-0.10657-1.923-0.18115-2.1985-0.19377-2.435-0.23483-2.6927-0.4675-0.20256-0.18287-0.23359-0.30979-0.27153-1.1104-0.0416-0.87816-0.0356-0.91068 0.21035-1.1386 0.25292-0.23441 0.25476-0.23458 1.7439-0.16841 0.81989 0.0364 1.6854 0.0855 1.9234 0.109 0.23796 0.0235 0.60806 0.0573 0.82244 0.0751 0.21437 0.0178 0.53887 0.0657 0.72111 0.10642 0.32743 0.0732 0.59694 0.10361 1.6293 0.18367 0.29085 0.0226 0.734 0.0874 0.98478 0.14402 0.25079 0.0566 0.48875 0.0955 0.52882 0.0863 0.1747-0.0401 2.2544 0.33725 3.1015 0.5627 0.50642 0.13478 1.8655 0.45555 2.4332 0.57429 0.14843 0.031 0.33628 0.15779 0.41744 0.28167 0.13436 0.20505 0.12895 0.30522-0.0604 1.118-0.28073 1.2051-0.36868 1.328-0.94159 1.3158-0.24997-5e-3 -0.60592-0.0468-0.791-0.0922z"/>
  <path d="m273.77 172.28c0.2152-0.0577 0.32579-0.31969 0.45694-1.0826 0.0308-0.17915 0.0981-0.40448 0.14965-0.50074 0.0802-0.14975 0.0414-0.18879-0.26811-0.27036-1.4541-0.3832-1.9054-0.48995-2.6693-0.63128-0.47593-0.0881-1.1033-0.20997-1.3941-0.27092-0.29085-0.0609-0.59372-0.10357-0.67304-0.0947-0.0793 9e-3 -0.44709-0.0503-0.81726-0.13142-0.37017-0.0812-0.7812-0.1607-0.9134-0.17678-0.13221-0.0161-0.65141-0.0784-1.1538-0.13841-0.50237-0.0601-1.173-0.15274-1.4903-0.20598-0.31729-0.0532-1.2692-0.11753-2.1153-0.14287-0.84609-0.0253-1.6287-0.0662-1.7392-0.0907-0.25137-0.0559-0.51128 0.13108-0.53372 0.3839-9e-3 0.10576-0.0102 0.43956-2e-3 0.74176 0.0189 0.68244 0.0957 0.7325 1.2956 0.84487 0.48562 0.0455 1.1642 0.11015 1.5079 0.14373 0.34373 0.0336 0.79802 0.0773 1.0096 0.0973 0.21153 0.0199 0.53603 0.0573 0.72111 0.0829 0.18509 0.0257 0.85572 0.11488 1.4903 0.19825 0.63458 0.0834 1.262 0.17342 1.3942 0.20012s0.79213 0.13513 1.4665 0.24095c0.67438 0.10582 1.6479 0.29719 2.1633 0.42527 0.75946 0.18871 1.5366 0.36779 1.8506 0.42648 0.0264 5e-3 0.14509-0.017 0.26367-0.0488z"/>
  <path d="m250.43 168.65c0-0.0233 0.0433-0.0691 0.0961-0.10182 0.0529-0.0327 0.0962-0.0136 0.0962 0.0424s-0.0433 0.10182-0.0962 0.10182-0.0961-0.0191-0.0961-0.0424z"/>
  <g fill="none" stroke="#000" stroke-dasharray="0.5276088,3.1656528" stroke-width=".528">
   <path d="m257.96 168.73 3.7478 77.766"/>
   <path d="m324.29 219.32-73.456 19.114"/>
  </g>
  <path transform="matrix(.24247 -.46859 .46859 .24247 .19627 628.14)" d="m883.69 99.607 96.299-23.277c2.2013-0.60085 4.2465-0.18036 4.5856 0.94282l0.5072 1.6795c0.3392 1.1232-1.16 2.5111-3.3613 3.1119l-95.483 25.98c-2.2013 0.60086-4.2465 0.18037-4.5857-0.94278l-1.3234-4.3827c-0.3392-1.1232 1.16-2.5111 3.3613-3.1119z" fill="#333" filter="url(#a)" opacity=".5"/>
  <path d="m258.86 235.96 12.443-50.769c0.25221-1.1772 0.94513-2.0336 1.5537-1.9202l0.91 0.1696c0.60856 0.1134 0.89542 1.1524 0.64321 2.3296l-10.978 51.042c-0.25222 1.1772-0.94513 2.0336-1.5537 1.9202l-2.3746-0.4426c-0.60854-0.1134-0.89539-1.1524-0.64318-2.3296z" fill="#f00"/>
 </g>
</svg>
