<?xml version="1.0" standalone="no"?>
<!DOCTYPE svg PUBLIC "-//W3C//DTD SVG 20010904//EN"
 "http://www.w3.org/TR/2001/REC-SVG-20010904/DTD/svg10.dtd">
<svg version="1.0" xmlns="http://www.w3.org/2000/svg"
 width="860.000000pt" height="708.000000pt" viewBox="0 0 860.000000 708.000000"
 preserveAspectRatio="xMidYMid meet">
<metadata>
Created by potrace 1.16, written by Peter Selinger 2001-2019
</metadata>
<g transform="translate(0.000000,708.000000) scale(0.100000,-0.100000)"
fill="#000000" stroke="none">
<path d="M4060 6599 c-74 -13 -169 -59 -213 -103 -43 -43 -82 -116 -93 -172
l-7 -39 52 48 c28 27 85 64 127 84 67 32 88 37 173 41 55 2 120 -1 151 -7 129
-28 260 -123 313 -228 74 -146 52 -348 -52 -473 l-29 -34 -78 27 c-44 15 -128
38 -187 52 -60 14 -121 32 -136 39 -14 8 -57 50 -94 95 -56 67 -73 81 -97 81
-35 0 -47 -11 -104 -104 l-46 -73 -53 4 c-35 3 -90 22 -167 58 -230 106 -385
139 -660 139 -200 0 -313 -13 -440 -51 l-55 -17 75 -8 c256 -28 436 -65 590
-121 73 -26 81 -32 60 -38 -22 -6 -20 -7 10 -7 19 0 49 4 65 8 28 7 28 8 5 9
-14 1 -75 19 -135 40 -136 48 -301 85 -464 106 -68 8 -126 17 -129 20 -3 3 -3
5 1 5 3 0 37 7 75 15 130 27 320 37 465 25 221 -19 366 -57 554 -146 65 -31
105 -44 136 -44 24 0 46 -2 49 -5 2 -3 -23 -60 -58 -127 -59 -117 -123 -280
-124 -316 -1 -24 -24 -64 -112 -193 -85 -127 -179 -305 -252 -479 -27 -63 -50
-116 -51 -118 -1 -1 -14 3 -29 9 -31 15 -33 35 -11 187 46 324 166 591 361
802 73 78 68 87 -8 14 -35 -33 -100 -83 -145 -113 -86 -55 -99 -71 -60 -71 37
0 51 -14 38 -38 -23 -43 -41 -52 -104 -52 -34 0 -71 -3 -82 -6 -34 -9 -153
-223 -230 -414 -86 -215 -131 -417 -154 -698 -5 -63 -11 -116 -14 -118 -2 -2
-12 31 -21 73 -53 249 -47 479 19 708 31 108 122 298 200 415 64 97 20 52 -54
-55 -85 -123 -131 -224 -191 -424 -68 -224 -90 -398 -99 -781 l-6 -285 -33
130 c-52 210 -65 309 -66 520 -1 226 18 367 80 595 14 53 -14 3 -34 -60 -30
-94 -49 -190 -62 -310 l-12 -105 -80 -122 c-44 -68 -113 -187 -154 -265 l-74
-143 0 95 c0 276 54 623 128 825 72 196 150 325 294 482 l72 78 -70 -66 c-56
-54 -87 -75 -166 -109 -158 -68 -359 -194 -473 -295 -22 -20 3 -5 55 34 131
96 258 175 365 226 143 68 144 68 79 -22 -140 -193 -237 -469 -274 -773 -11
-94 -30 -414 -29 -500 l0 -55 72 140 71 140 8 -90 c59 -673 127 -1078 224
-1333 14 -37 36 -136 50 -221 13 -85 38 -221 54 -302 l30 -147 -104 -419 c-58
-230 -124 -506 -147 -613 -55 -260 -127 -650 -120 -650 3 0 24 91 45 202 58
305 146 694 242 1073 47 187 87 342 89 344 6 5 10 -7 39 -106 l23 -81 -32
-119 c-110 -402 -184 -838 -210 -1235 -3 -51 -1 -88 4 -88 5 0 12 39 16 88 37
516 143 1067 290 1505 61 183 50 175 99 70 24 -50 62 -117 84 -150 l40 -59
-40 -33 c-43 -36 -78 -99 -78 -141 0 -14 9 -44 20 -68 l19 -42 -29 -47 c-38
-60 -65 -177 -56 -252 13 -113 94 -229 198 -282 158 -81 489 -80 649 2 63 32
136 105 166 168 26 51 28 66 28 172 0 96 3 120 17 136 49 54 60 141 27 210
-24 50 -57 79 -109 94 -47 14 -79 7 -119 -27 l-31 -26 -66 27 c-63 25 -75 27
-205 23 l-138 -3 -15 33 c-19 39 -70 72 -113 72 l-33 0 1 103 c1 56 4 128 8
161 l6 58 45 15 c25 8 49 19 54 24 23 22 23 5 1 -40 -25 -49 -33 -105 -16
-115 20 -13 43 9 72 65 25 50 33 59 57 59 40 0 50 -11 54 -54 3 -45 32 -71 49
-46 15 22 1 219 -17 248 -22 34 -63 29 -104 -13 l-34 -35 -20 37 c-15 26 -33
42 -61 52 -22 8 -41 15 -42 16 -1 1 6 53 17 116 26 155 40 310 40 457 0 103 3
129 21 167 28 59 40 69 72 54 20 -9 24 -16 17 -28 -25 -48 -43 -188 -36 -296
7 -120 44 -319 70 -375 9 -19 13 -26 11 -14 -23 92 -36 172 -42 249 l-6 90 49
-60 c33 -40 54 -77 62 -110 15 -56 72 -167 90 -173 6 -2 1 16 -13 40 -26 46
-60 137 -53 143 2 3 20 -6 39 -19 19 -12 48 -31 64 -41 32 -19 30 -17 -105
109 -30 28 -73 73 -95 100 l-40 49 0 101 c0 102 18 194 40 202 6 3 60 -17 121
-43 106 -47 109 -50 112 -83 4 -40 -6 -100 -17 -100 -4 0 -29 29 -57 65 -58
78 -72 68 -19 -13 160 -243 213 -242 535 8 68 53 98 70 150 83 35 9 65 15 66
14 1 -1 -40 -59 -90 -129 -50 -70 -116 -171 -147 -225 -48 -85 -61 -102 -105
-125 -27 -16 -66 -31 -86 -34 -21 -4 -38 -11 -38 -16 0 -5 8 -7 18 -4 9 2 37
8 62 11 l45 7 -80 -82 c-90 -92 -104 -101 -160 -110 -38 -6 -39 -7 -13 -14 40
-11 103 23 186 100 l70 64 -28 -73 c-16 -40 -37 -101 -46 -135 -17 -62 -18
-62 -54 -62 -34 0 -37 -3 -58 -52 -26 -63 -62 -168 -62 -180 0 -4 29 -8 64 -8
l64 0 6 -37 c3 -21 8 -60 12 -86 3 -26 9 -45 12 -42 4 3 20 41 37 83 24 59 36
78 53 80 12 2 37 22 57 45 32 37 38 40 62 31 24 -8 29 -17 35 -58 7 -53 22
-76 38 -60 28 28 18 267 -12 285 -14 9 -21 5 -89 -51 l-43 -35 48 90 c64 117
163 268 213 325 l40 44 -3 -34 c-3 -37 6 -1 63 250 63 276 103 398 269 810
193 482 271 667 403 957 89 196 118 249 298 528 290 451 414 634 448 657 17
13 136 9 210 -7 248 -52 445 -275 445 -504 l0 -56 -133 -141 c-167 -177 -189
-213 -281 -467 -12 -33 -44 -76 -100 -135 -59 -65 -90 -108 -116 -163 l-35
-76 -36 5 c-30 3 -39 0 -53 -19 -9 -13 -16 -31 -16 -40 0 -15 -4 -16 -44 -4
-37 11 -47 11 -65 -1 -12 -8 -21 -21 -21 -28 0 -12 -59 -29 -68 -21 -2 2 -5
141 -5 310 -1 206 -5 293 -11 268 -9 -38 -14 -554 -7 -738 2 -55 0 -132 -4
-172 -5 -46 -3 -84 4 -104 19 -56 -14 -358 -65 -587 -55 -250 -140 -459 -285
-702 -90 -149 -82 -129 -129 -315 -41 -160 -87 -295 -101 -295 -4 0 -9 19 -11
42 -6 74 -15 10 -33 -232 -9 -124 -30 -349 -47 -500 -41 -355 -41 -367 4 -520
21 -69 42 -144 48 -167 l11 -43 144 0 c80 0 145 2 145 3 0 2 -25 100 -54 218
-115 451 -228 1023 -218 1109 2 25 13 57 24 72 35 50 70 142 103 273 18 72 36
123 39 115 3 -8 35 -190 71 -405 75 -439 194 -1117 225 -1275 11 -58 20 -107
20 -110 0 -2 4 0 9 5 5 6 -7 88 -30 204 -48 238 -123 664 -219 1243 l-73 436
77 129 c214 354 309 653 357 1121 11 106 15 121 29 117 29 -9 53 33 74 128 4
15 12 27 20 27 28 0 66 41 72 79 4 27 14 43 34 54 26 16 60 70 60 97 0 6 13
28 30 48 16 21 32 53 35 72 l5 35 -11 -37 c-6 -21 -27 -51 -47 -70 -26 -23
-36 -38 -34 -55 4 -31 -22 -71 -54 -83 -15 -6 -24 -17 -24 -30 0 -11 -7 -37
-15 -57 -14 -33 -18 -35 -49 -30 l-33 5 -6 -53 c-10 -99 -50 -145 -76 -88 -23
49 -25 133 -5 183 12 32 18 75 18 150 l1 105 31 -1 c28 -2 33 2 38 27 7 37 30
46 70 30 64 -26 66 -26 66 7 0 17 3 37 6 46 8 21 53 20 83 -1 14 -9 21 -11 17
-5 -4 6 8 46 25 88 26 62 48 93 114 163 57 61 87 101 100 136 99 271 131 323
294 485 l125 125 -2 65 c-1 36 -8 87 -16 114 -8 27 -13 53 -10 58 3 4 23 17
45 29 55 27 117 92 141 145 12 29 23 42 31 37 7 -4 39 -26 72 -49 70 -48 138
-84 160 -84 34 0 10 38 -76 123 -83 81 -92 93 -93 129 -2 32 -10 47 -34 69
-18 16 -32 37 -32 47 0 26 -27 60 -61 77 -22 12 -29 23 -29 44 0 45 -44 91
-86 91 -32 0 -33 1 -23 26 12 34 4 61 -24 76 -33 17 -131 14 -161 -6 -20 -12
-31 -14 -45 -6 -26 13 -74 13 -105 -1 -21 -10 -34 -6 -93 27 -94 53 -139 74
-158 74 -35 0 -11 -42 64 -113 75 -69 79 -76 66 -95 -25 -35 -46 -134 -44
-205 l2 -69 -82 -3 c-45 -1 -86 -6 -91 -11 -14 -15 -249 -364 -374 -554 l-119
-182 -20 34 c-158 260 -331 429 -554 542 -40 20 -73 39 -73 41 0 14 55 111 85
151 49 64 92 159 106 236 23 123 -19 244 -119 343 -124 123 -357 195 -532 164z
m263 -35 c148 -38 282 -139 337 -255 55 -118 49 -225 -21 -367 -39 -79 -62
-107 -39 -47 35 93 30 243 -12 332 -122 260 -558 339 -783 142 -43 -38 -44
-30 -6 37 90 156 294 218 524 158z m1786 -374 c25 -12 65 -20 96 -20 98 0 99
-55 2 -105 l-56 -29 -3 -71 c-2 -38 -8 -79 -13 -90 -8 -19 -8 -19 9 -2 9 9 31
17 47 17 23 0 31 -6 43 -34 15 -37 50 -66 79 -66 10 0 33 -16 51 -36 27 -29
42 -37 84 -42 l50 -7 -13 -38 c-7 -20 -24 -52 -38 -71 -27 -35 -111 -96 -133
-96 -7 0 -32 28 -55 63 -99 145 -168 206 -269 233 -30 8 -72 19 -94 25 l-38
10 4 108 c4 133 28 188 102 239 56 37 84 39 145 12z m286 -113 c8 -12 15 -33
15 -47 0 -22 -11 -31 -72 -63 -40 -20 -81 -42 -90 -49 -26 -19 -70 1 -79 35
-9 32 4 77 21 77 6 0 32 15 58 33 72 49 119 54 147 14z m-2438 -144 c103 -120
99 -117 245 -153 320 -79 516 -181 696 -362 76 -77 188 -222 239 -309 l21 -36
-76 -114 c-76 -116 -157 -276 -252 -499 -61 -144 -70 -158 -70 -107 0 52 -26
219 -49 319 -32 134 -122 382 -175 483 -20 37 -20 29 -1 -93 12 -80 35 -373
35 -447 0 -14 -10 -25 -32 -33 -17 -6 -33 -11 -34 -9 -1 1 -25 90 -53 197 -46
179 -108 386 -144 485 l-14 40 -7 -47 c-4 -27 -5 -92 -2 -145 l6 -98 -31 95
c-16 52 -46 147 -66 210 l-36 115 -37 -255 c-32 -223 -171 -1036 -202 -1190
l-11 -55 -43 131 c-84 261 -131 532 -141 819 -7 208 12 568 37 690 10 49 17
91 16 93 -10 9 -156 -251 -156 -278 0 -5 23 -10 50 -10 38 0 50 -4 50 -15 0
-12 -13 -15 -60 -15 l-59 0 -21 -71 c-54 -180 -85 -363 -119 -699 -9 -83 -9
-72 -5 86 10 413 74 720 208 999 50 103 185 321 210 337 19 13 23 10 83 -59z
m2521 31 c39 -27 28 -57 -30 -87 -29 -15 -69 -36 -88 -48 -33 -20 -38 -21 -65
-8 -22 11 -31 22 -33 45 -4 37 27 64 106 95 58 23 81 23 110 3z m88 -129 c12
-18 13 -28 4 -44 -33 -62 -190 -69 -190 -9 0 22 53 68 96 83 44 15 65 8 90
-30z m-3071 -636 c-33 -154 -46 -281 -52 -496 -7 -260 0 -248 -118 -208 -62
20 -169 67 -183 80 -8 7 87 232 150 354 61 121 207 356 215 347 2 -1 -4 -36
-12 -77z m840 -399 c46 -145 83 -265 82 -266 -11 -9 -173 -60 -250 -79 -71
-17 -105 -21 -123 -15 -28 11 -28 8 -10 102 18 92 204 559 213 533 1 -5 41
-129 88 -275z m-601 -285 c22 -152 56 -288 123 -489 49 -149 57 -167 64 -141
4 17 26 144 50 283 l42 252 40 0 c46 0 157 28 281 70 50 16 90 30 91 30 1 0
33 -99 71 -221 l69 -221 10 149 10 148 27 -90 c15 -49 34 -121 42 -158 l14
-68 -156 -390 -157 -390 -80 -84 -80 -83 -90 -16 c-161 -28 -284 -38 -403 -34
-102 4 -124 8 -169 31 -28 15 -85 40 -126 56 -239 95 -476 219 -526 276 -46
53 -56 103 -40 210 20 128 16 335 -10 486 l-21 127 25 83 c43 148 139 366 210
474 l26 40 -5 -45 c-3 -25 -8 -75 -12 -112 -6 -61 -8 -66 -25 -58 -10 6 -20 6
-23 1 -3 -4 6 -13 19 -19 25 -12 25 -12 26 -159 0 -82 2 -143 4 -138 2 6 20
63 40 128 24 79 40 117 48 113 7 -2 55 -24 107 -47 52 -23 116 -44 143 -47
l47 -5 1 -76 c1 -42 4 -110 8 -151 l6 -75 19 100 c44 239 130 529 198 674 l32
66 7 -185 c4 -102 14 -234 23 -295z m-1304 -385 c26 -193 89 -425 152 -563 32
-70 48 -74 48 -10 0 38 45 308 61 366 l12 42 13 -39 c21 -59 51 -228 65 -361
16 -157 6 -476 -21 -715 -28 -237 -29 -474 -5 -580 10 -41 17 -82 17 -90 0
-17 -95 -286 -103 -295 -17 -17 -114 409 -143 630 -21 151 -27 181 -66 285
-86 233 -167 718 -211 1267 -12 162 -24 122 95 318 l61 100 7 -135 c4 -74 12
-173 18 -220z m415 -1156 c46 -210 103 -387 165 -508 l50 -100 -15 -100 c-9
-56 -19 -181 -22 -279 -7 -205 -3 -202 -93 -71 -65 94 -114 198 -141 299 -30
114 -36 356 -15 580 10 94 20 209 23 258 3 48 8 85 10 83 2 -2 20 -75 38 -162z
m908 72 l147 1 0 -33 c0 -29 -7 -38 -77 -87 -146 -102 -192 -111 -259 -53 -38
33 -39 34 -26 68 6 19 12 53 12 76 0 41 1 42 28 35 15 -5 93 -7 175 -7z m467
-281 c-19 -91 -23 -100 -70 -151 -105 -116 -253 -373 -351 -612 -39 -96 -47
-91 -48 29 -1 91 21 225 54 334 21 67 35 92 86 150 72 83 341 356 346 352 2
-2 -6 -48 -17 -102z m-652 -1059 c100 -53 172 -133 203 -223 33 -96 34 -259 2
-318 -41 -77 -142 -154 -253 -191 -44 -15 -85 -19 -210 -19 -136 0 -164 3
-225 24 -38 13 -83 30 -98 38 -50 25 -108 86 -137 143 -55 109 -48 226 21 368
35 72 75 106 184 158 114 54 164 64 310 61 129 -3 130 -3 203 -41z"/>
<path d="M3050 4103 c-62 -6 -79 -13 -90 -34 -7 -11 -8 -28 -4 -37 4 -9 8 -26
8 -37 1 -19 7 -20 211 -17 116 2 217 5 225 8 8 2 20 20 26 40 11 34 10 39 -12
60 -22 23 -28 24 -176 22 -84 0 -169 -3 -188 -5z"/>
<path d="M4037 4042 c-19 -21 -23 -52 -7 -52 6 0 6 -7 -1 -19 -24 -38 -7 -46
117 -59 66 -6 173 -24 239 -38 190 -41 175 -41 175 -6 0 17 5 34 10 37 14 9
12 51 -3 63 -34 29 -349 92 -456 92 -43 0 -62 -5 -74 -18z"/>
<path d="M3046 1549 c-39 -31 -56 -70 -68 -164 -10 -77 -9 -87 11 -128 36 -75
105 -89 167 -35 132 116 99 348 -49 348 -20 0 -46 -9 -61 -21z"/>
<path d="M3466 1519 c-43 -34 -68 -95 -68 -164 0 -143 109 -231 204 -163 89
63 91 257 3 326 -37 29 -103 30 -139 1z"/>
<path d="M3441 2264 c-44 -116 -49 -189 -13 -182 9 2 23 16 30 31 7 15 16 27
20 27 4 0 16 -19 27 -42 11 -24 27 -44 36 -46 22 -4 56 44 79 111 28 83 31
102 16 123 -12 16 -16 16 -31 4 -9 -8 -28 -38 -41 -68 -13 -30 -28 -51 -34
-47 -5 3 -10 29 -10 56 0 104 -46 123 -79 33z"/>
</g>
</svg>
